<svg xmlns="http://www.w3.org/2000/svg" xmlns:xlink="http://www.w3.org/1999/xlink" viewBox="0 0 500 500"><defs><clipPath id="freepik--clip-path--inject-44"><path d="M415.1,157c0-4.57-2-7.42-5.15-7.42a8.2,8.2,0,0,0-4.07,1.27c-3.53,2-6.78,6.11-8.71,10.93a.47.47,0,0,0-.06.15h0a21.28,21.28,0,0,0-1.59,7.67v16.37l19.58-11.3Z" style="fill:none"></path></clipPath></defs><g id="freepik--Floor--inject-44"><path id="freepik--floor--inject-44" d="M87.38,402.18c90.43,46.47,237,46.47,327.45,0s90.43-121.82,0-168.3-237-46.47-327.45,0S-3,355.71,87.38,402.18Z" style="fill:#f5f5f5"></path></g><g id="freepik--Plants--inject-44"><g id="freepik--plants--inject-44"><path d="M407.51,277.69c.11-6.21,6.61-22.45,13.2-30.41s16.82-13.67,24-11.08c6.67,2.41,5.79,11.19-2.45,16.88s-20.6,12.8-24.35,22.81l-7.72,12.24Z" style="fill:#BA68C8"></path><path d="M407.51,277.69c.11-6.21,6.61-22.45,13.2-30.41s16.82-13.67,24-11.08c6.67,2.41,5.79,11.19-2.45,16.88s-20.6,12.8-24.35,22.81l-7.72,12.24Z" style="opacity:0.1"></path><path d="M408.69,282.73a.45.45,0,0,0,.41-.35c4.53-21.14,22-38.08,32.32-41.71a.45.45,0,0,0,.28-.58.45.45,0,0,0-.58-.27c-10.53,3.7-28.31,20.91-32.91,42.37a.47.47,0,0,0,.35.54Z" style="fill:#fff"></path><path d="M411.61,296.36c1.06-3.47,5.43-9.16,12.41-13.8,7.72-5.13,17.42-7.38,19.72-11.45,2.76-4.87-1.31-9.6-9.16-8.76s-21.83,11.29-24.31,27.36Z" style="fill:#BA68C8"></path><path d="M410.16,292.67a.47.47,0,0,0,.4-.29c6.82-18.05,20.79-24.19,27.22-24.91a.45.45,0,0,0,.4-.5.44.44,0,0,0-.5-.4c-7.11.79-21,7.06-28,25.49a.45.45,0,0,0,.26.58A.32.32,0,0,0,410.16,292.67Z" style="fill:#fff"></path></g><g id="freepik--plants--inject-44"><path d="M104.15,336.43l7.57-4.33s3.63-20,.92-37.2c-3.82-24.18-20.28-32.52-26.26-30.11s-7.39,9.56,3.41,23.53C96.16,296.57,104.36,314,104.15,336.43Z" style="fill:#BA68C8"></path><g style="opacity:0.1"><path d="M104.15,336.43l7.57-4.33s3.63-20,.92-37.2c-3.82-24.18-20.28-32.52-26.26-30.11s-7.39,9.56,3.41,23.53C96.16,296.57,104.36,314,104.15,336.43Z"></path></g><path d="M106.89,326.83h-.07a.53.53,0,0,1-.46-.61c3.13-22.63-6-47.43-16.2-57.43a.53.53,0,0,1,0-.76.54.54,0,0,1,.76,0c10.42,10.18,19.69,35.38,16.52,58.35A.55.55,0,0,1,106.89,326.83Z" style="fill:#fff"></path><path d="M83.15,348.56c-1.19.69-3.66-.81-4.6-1.45a11.39,11.39,0,0,1-3.8-4.35,10.71,10.71,0,0,1-1-6.43,24.86,24.86,0,0,1,.81-3.41l1-3.32a8.34,8.34,0,0,0,.48-3.34c-.29-2.27-2.3-3.86-4.13-5.23-2-1.52-4.13-3.52-4.12-6.25a9.63,9.63,0,0,1,2.4-5.71c1.31-1.65,2.86-3.11,4-4.86A6.69,6.69,0,0,0,75.61,300a6.87,6.87,0,0,0-.92-2.65,36.66,36.66,0,0,1-2.9-5.32c-.67-1.91-.57-4.28.92-5.65a6.26,6.26,0,0,1,4.7-1.17,10.81,10.81,0,0,1,4.36,1.54c4.34,2.41,6.81,7.54,11.41,9.4a47.14,47.14,0,0,0,5.57,1.36,6.88,6.88,0,0,1,4.59,3.14c1.69,3.37-1.45,7.53-.26,11.11,1,3.17,4.13,4.38,5.86,7.23a6.85,6.85,0,0,1,.81,4.15,20,20,0,0,1-1.75,7,50.28,50.28,0,0,1-3.85,6.31C104.08,336.5,83.33,348.46,83.15,348.56Z" style="fill:#BA68C8"></path><path d="M95.44,342h0a.54.54,0,0,1-.52-.56c.89-21.42-9.21-45.08-16.55-51.95a.55.55,0,0,1,0-.76.54.54,0,0,1,.76,0c7.49,7,17.79,31.06,16.89,52.79A.54.54,0,0,1,95.44,342Z" style="fill:#fff"></path><path d="M92.23,316.7l-.16,0a72.23,72.23,0,0,0-15.55-2.51.54.54,0,0,1-.52-.56.53.53,0,0,1,.56-.52,74.35,74.35,0,0,1,15.83,2.56.54.54,0,0,1-.16,1.05Z" style="fill:#fff"></path></g></g><g id="freepik--Device--inject-44"><path d="M85.79,340.61l109.13,63a9.57,9.57,0,0,0,8.66,0L410.21,284.3c2.39-1.38,2.39-3.62,0-5l-109.14-63a9.57,9.57,0,0,0-8.66,0L85.79,335.61C83.4,337,83.4,339.23,85.79,340.61Z" style="fill:#37474f"></path><path d="M144.77,369.88a13.28,13.28,0,0,0,12,0c3.32-1.92,3.32-5,0-6.94a13.28,13.28,0,0,0-12,0C141.45,364.86,141.45,368,144.77,369.88Z" style="fill:#263238"></path><path d="M194.92,403.62l-109.13-63c-2.14-1.23-2.36-3.15-.68-4.53a9.67,9.67,0,0,0-3.65,7v4.07a9.56,9.56,0,0,0,4.33,7.5l109.13,63a8.89,8.89,0,0,0,4.33,1V404.65A8.88,8.88,0,0,1,194.92,403.62Z" style="fill:#455a64"></path><path d="M410.21,298.37a9.58,9.58,0,0,0,4.33-7.5V286.8a9.69,9.69,0,0,0-3.66-7c1.69,1.38,1.47,3.3-.67,4.54L203.58,403.62a8.83,8.83,0,0,1-4.33,1v14.08a8.83,8.83,0,0,0,4.33-1Z" style="fill:#263238"></path><path d="M212.91,390.56l-103-59.48c-1.44-.83-1.44-2.17,0-3l169.42-97.87a5.74,5.74,0,0,1,5.2,0l103.05,59.47c1.44.82,1.44,2.17,0,3L218.1,390.56A5.72,5.72,0,0,1,212.91,390.56Z" style="fill:#fafafa"></path><path d="M186.12,310.53l60.93,35.17-38.46,22.21a4.85,4.85,0,0,1-4.33,0l-56.6-32.68a1.32,1.32,0,0,1,0-2.5Z" style="fill:#e6e6e6"></path><path d="M247,345.7l-7.18-28.54a3.25,3.25,0,0,0-1.08-1.74h0a3.47,3.47,0,0,0-1.93-.81l-50.73-4.08Z" style="fill:#e0e0e0"></path><path d="M247,345.7l-54.53-2.25a2.75,2.75,0,0,1-2.62-2.42l-3.78-30.51Z" style="fill:#e0e0e0"></path><path d="M247,345.7l-54.53-2.25a2.75,2.75,0,0,1-2.62-2.42l-3.78-30.51,6.73,30a1.29,1.29,0,0,0,1.15,1Z" style="fill:#fafafa"></path><polygon points="198.3 343.36 206.43 369.16 208.59 367.91 198.3 343.36" style="fill:#fafafa"></polygon><polygon points="145.5 333.98 147.66 332.73 190.18 338.67 145.5 333.98" style="fill:#fafafa"></polygon><path d="M220.78,297.7l48.47,28a4.79,4.79,0,0,0,4.33,0L342.37,286a1.32,1.32,0,0,0,0-2.5l-48.47-28a4.79,4.79,0,0,0-4.33,0L220.78,295.2A1.32,1.32,0,0,0,220.78,297.7Z" style="fill:#e6e6e6"></path><path d="M259.32,294a6.35,6.35,0,0,1-.43-6.09c.9-2,2.86-3.92,5.87-5.65a29.82,29.82,0,0,1,10.73-3.79,31.17,31.17,0,0,1,11.1.4,36.53,36.53,0,0,1,10.69,4.17q4.82,2.77,6.56,5.72a5.82,5.82,0,0,1,.44,5.75c-.88,1.87-2.73,3.62-5.53,5.24a20.52,20.52,0,0,1-8.83,2.88,13,13,0,0,1-7.51-1.54,3.17,3.17,0,0,1-1.75-1.92,2.11,2.11,0,0,1,.73-2,16.16,16.16,0,0,1-4.81-.33,15.13,15.13,0,0,1-4.4-1.7q-3.46-2-3.62-4.34t3.31-4.3a17.3,17.3,0,0,1,9.22-2.37,19.32,19.32,0,0,1,9.38,2.67,11.23,11.23,0,0,1,3.1,2.55,5.23,5.23,0,0,1,1.3,2.73l-9,5.22c-.73.42-1.13.79-1.19,1.11s.2.66.77,1a5.59,5.59,0,0,0,4,.34,19,19,0,0,0,5.55-2.27c2.26-1.3,3.69-2.7,4.29-4.17a4.57,4.57,0,0,0-.47-4.4,13.06,13.06,0,0,0-4.68-4.1,27.09,27.09,0,0,0-12.63-3.75,23.6,23.6,0,0,0-12.85,3.38q-3.69,2.13-4.74,4.5a4.73,4.73,0,0,0,.32,4.64,13,13,0,0,0,4.76,4.23,22.17,22.17,0,0,0,4,1.79,18.43,18.43,0,0,0,4,.9,1.23,1.23,0,0,1,.42.11c.07,0,.07.13,0,.26l-1.32,1.85a1,1,0,0,1-.19.19.93.93,0,0,1-.6,0,23.55,23.55,0,0,1-4.84-1.14,25.93,25.93,0,0,1-4.72-2.11C262.65,298,260.51,296.05,259.32,294Zm20.85.87a6.64,6.64,0,0,0,4-.75l5.23-3a6.22,6.22,0,0,0-2.63-2.43,11.14,11.14,0,0,0-5.5-1.53,10.49,10.49,0,0,0-5.49,1.44q-2.19,1.26-2.13,2.49c0,.82.82,1.67,2.35,2.55A10.09,10.09,0,0,0,280.17,294.88Z" style="fill:#fafafa"></path><path d="M347.26,252.9a2.9,2.9,0,0,0,2.66,0,.81.81,0,0,0,0-1.53,3,3,0,0,0-2.66,0A.81.81,0,0,0,347.26,252.9Z" style="fill:#263238"></path><path d="M351.5,264.94a5.85,5.85,0,0,0,5.31,0c1.47-.84,1.47-2.22,0-3.06a5.85,5.85,0,0,0-5.31,0C350,262.72,350,264.1,351.5,264.94Z" style="fill:#263238"></path><path d="M347.76,259.61c1-.57.93-1.51-.12-2.11l-17.46-10.09a4,4,0,0,0-3.66-.06c-1,.56-.92,1.51.12,2.11l17.46,10.08A4.07,4.07,0,0,0,347.76,259.61Z" style="fill:#263238"></path></g><g id="freepik--Letter--inject-44"><g id="freepik--letter--inject-44"><path d="M121.38,132.44a6.81,6.81,0,0,1,3.09-5.36L282.7,35.73a6.82,6.82,0,0,1,6.19,0l3.48,2a6.81,6.81,0,0,1,3.09,5.35V164.38a6.89,6.89,0,0,1-3.09,5.36L134.14,261.09a6.86,6.86,0,0,1-6.18,0l-3.49-2a6.89,6.89,0,0,1-3.09-5.36Z" style="fill:#BA68C8"></path><path d="M122.28,129.39l8.78,5.06,163.5-94.4a6.4,6.4,0,0,0-2.18-2.31l-3.5-2a6.8,6.8,0,0,0-6.18,0L124.48,127.08A6.2,6.2,0,0,0,122.28,129.39Z" style="fill:#fff;opacity:0.4"></path><path d="M121.38,132.43V253.71a6.82,6.82,0,0,0,3.1,5.36l3.48,2a4.39,4.39,0,0,0,.85.38,6.94,6.94,0,0,0,1.27.29,7.4,7.4,0,0,0,2.44-.09,5.25,5.25,0,0,0,.6-.16,2,2,0,0,0,.37-.14,1.88,1.88,0,0,1-1.48,0,2.16,2.16,0,0,1-.95-2V138a2.71,2.71,0,0,1,1.61-2.63l-1.61-.94-8.78-5.06A6.38,6.38,0,0,0,121.38,132.43Z" style="opacity:0.1"></path><path d="M131.06,134.45l73.28,27.38a11.91,11.91,0,0,0,14.13-4.66l11.77-18,64.9-99.44L232.58,139.82l62.88,24.61a6.44,6.44,0,0,1-1,3.09L232.41,140.1,218.73,162a11.9,11.9,0,0,1-14.91,4.58l-9.73-4.3L132,261.34a2.16,2.16,0,0,1-.95-2v-2l62.73-95.14Z" style="opacity:0.2"></path></g><path d="M149.19,106.13,138.37,99.9h0l-.1-.06v0c-4.8-2.71-11.38-2.3-18.67,1.9-14.67,8.47-26.56,29.07-26.56,46,0,8.45,3,14.4,7.75,17.18h0l9.84,5.61,2.35-3.93a27.14,27.14,0,0,0,7.62-3c14.67-8.47,26.56-29.07,26.56-46a28.22,28.22,0,0,0-.83-6.78Z" style="fill:#37474f"></path><path d="M129.86,107.65c-14.68,8.47-26.57,29.07-26.57,46s11.89,23.81,26.56,15.34,26.57-29.08,26.57-46S144.53,99.17,129.86,107.65Z" style="fill:#455a64"></path><path d="M121.6,140.34a.82.82,0,0,1-.21-.75,2.25,2.25,0,0,1,.4-1L130,126.4c.21-.29.41-.58.63-.86a2.33,2.33,0,0,1,.69-.65l3-1.7a.63.63,0,0,1,1,.59v28.14a2.07,2.07,0,0,1-.31,1,2,2,0,0,1-.71.76l-3.06,1.76a.69.69,0,0,1-.72.07.71.71,0,0,1-.3-.66V133.34l-5.35,7.93a1.76,1.76,0,0,1-.74.67.67.67,0,0,1-.7-.06Z" style="fill:#fafafa"></path></g><g id="freepik--Mailbox--inject-44"><g id="freepik--mailbox--inject-44"><path d="M366.61,237.33v-1.79h.44a7,7,0,0,1,2.9-2.85,17.86,17.86,0,0,1,16.14,0,7,7,0,0,1,2.9,2.85h.44v1.73c0,1.71-1.08,3.43-3.34,4.74A17.86,17.86,0,0,1,370,242C367.71,240.72,366.6,239,366.61,237.33Z" style="fill:#263238"></path><path d="M386.09,230.88a17.8,17.8,0,0,0-16.14,0c-4.46,2.57-4.46,6.74,0,9.32a17.86,17.86,0,0,0,16.14,0C390.55,237.62,390.55,233.45,386.09,230.88Z" style="fill:#455a64"></path><path d="M381,167v67.78a1.46,1.46,0,0,1-.86,1.2,4.56,4.56,0,0,1-4.16,0,1.46,1.46,0,0,1-.86-1.2V167Z" style="fill:#37474f"></path><polygon points="375.08 174.38 375.08 176.5 380.96 179.89 380.96 177.78 375.08 174.38" style="fill:#263238"></polygon><path d="M412.59,149.05h0l-.5,1-5.38,10.78L404.16,166l-8.64,17.33-.95,1.91h-.17a2,2,0,0,1-1-.23l-38.51-22.26a2.16,2.16,0,0,1-1-1.68V146.19c0-7.42,4.89-16.26,10.92-19.74,2.86-1.65,5.45-1.78,7.4-.69v0Z" style="fill:#455a64"></path><path d="M405.32,149.84c-2.44.9-11.29,8.21-11.29,19.73,0,9.68,0,14.7,0,15.61l.36,0h.17l.95-1.91L404.16,166l2.55-5.12.59-1.17Z" style="fill:#37474f"></path><path d="M415.76,173h0a1.07,1.07,0,0,1-.4.39l-.1.06L395.37,185a1.9,1.9,0,0,1-.8.22h-.17V169.57a22.35,22.35,0,0,1,1.73-8.24l1,.56,7.05,4.07,10.94,6.33.56.32A.29.29,0,0,1,415.76,173Z" style="fill:#37474f"></path><path d="M412.59,149.05c-1.93-1-4.48-.83-7.27.79a22.08,22.08,0,0,0-8,8.82,26.8,26.8,0,0,0-1.23,2.67,22.35,22.35,0,0,0-1.73,8.24v15.64h.17a1.9,1.9,0,0,0,.8-.22l19.88-11.49.1-.06a1.48,1.48,0,0,0,.4-.39h0a2.11,2.11,0,0,0,.46-1.23V157C416.22,153,414.82,150.23,412.59,149.05Zm2.22,23.4-19,11c-.16.09-.29,0-.29-.17V169.57a21.33,21.33,0,0,1,1.59-7.68.47.47,0,0,1,.06-.15,25.86,25.86,0,0,1,1.32-2.82,20.59,20.59,0,0,1,7.39-8.11,8.2,8.2,0,0,1,4.07-1.27,4.46,4.46,0,0,1,2.14.52c1.9,1,3,3.47,3,6.9v15A.63.63,0,0,1,414.81,172.45Z" style="fill:#455a64"></path><path d="M415.1,157v15.33l-18-10.4a.47.47,0,0,1,.06-.15c1.93-4.82,5.18-8.91,8.71-10.93a8.2,8.2,0,0,1,4.07-1.27C413.13,149.54,415.1,152.39,415.1,157Z" style="fill:#263238"></path><path d="M382.16,164.6l1.59-.92h0a2.12,2.12,0,0,1,2.11.21,6.64,6.64,0,0,1,3,5.2A2.1,2.1,0,0,1,388,171h0l-1.47.85-.27-.45a3.08,3.08,0,0,1-.86-.33,6.64,6.64,0,0,1-3-5.2,3.62,3.62,0,0,1,.09-.77Z" style="fill:#e0e0e0"></path><path d="M384.35,164.77a6.63,6.63,0,0,1,3,5.19c0,1.92-1.35,2.69-3,1.74a6.65,6.65,0,0,1-3-5.2C381.34,164.59,382.69,163.81,384.35,164.77Z" style="fill:#fafafa"></path><path d="M384.35,169.06a.87.87,0,0,1-.87-.87V143.58a.87.87,0,0,1,1.74,0v24.61A.87.87,0,0,1,384.35,169.06Z" style="fill:#ebebeb"></path><polygon points="383.48 146.01 374.76 140.98 377.49 146.23 374.76 148.33 383.48 153.37 383.48 146.01" style="fill:#BA68C8"></polygon></g><g style="clip-path:url(#freepik--clip-path--inject-44)"><g id="freepik--letter--inject-44"><path d="M410.56,162a.85.85,0,0,0-.38-.67l-19.72-11.38a.87.87,0,0,0-.77,0l-.44.25a.85.85,0,0,0-.38.67V166a.88.88,0,0,0,.38.67L409,178a.87.87,0,0,0,.77,0l.44-.25a.85.85,0,0,0,.38-.67Z" style="fill:#f0f0f0"></path><path d="M410.45,161.6l-1.09.63L389,150.47a.84.84,0,0,1,.27-.29l.44-.25a.81.81,0,0,1,.77,0l19.72,11.38A.84.84,0,0,1,410.45,161.6Z" style="fill:#fafafa"></path><path d="M410.56,162v15.11a.85.85,0,0,1-.38.67l-.44.25-.1.05-.16,0a.81.81,0,0,1-.31,0l-.07,0-.05,0a.21.21,0,0,0,.19,0,.27.27,0,0,0,.12-.25V162.67a.33.33,0,0,0-.21-.32l.21-.12,1.09-.63A.79.79,0,0,1,410.56,162Z" style="fill:#e0e0e0"></path><path d="M409.36,162.23l-9.14,3.41a1.49,1.49,0,0,1-1.76-.58L397,162.82l-8.09-12.4,7.79,12.48L388.87,166a.8.8,0,0,0,.12.38l7.74-3.42,1.7,2.73a1.48,1.48,0,0,0,1.86.57l1.21-.53L409.24,178a.27.27,0,0,0,.12-.25v-.25l-7.82-11.86Z" style="fill:#e0e0e0"></path></g></g><path d="M428.23,159.52l-2.09,1.74a22.41,22.41,0,0,1-1.79,2.3l-6,6.93-2.12,2.45-13.64,7.88-6.52,5.41H396a.92.92,0,0,1-.57-.09l-.61-.35a0,0,0,0,1,0,0,.4.4,0,0,1-.1-.61,0,0,0,0,0,0,0l4.76-5.5h0l3-3.49a88.63,88.63,0,0,1,19-15.69c2.82-1.62,4.58-2.18,5.21-1.79h0l1.43.83S428.22,159.52,428.23,159.52Z" style="fill:#455a64"></path><path d="M425.82,164.42l-4,4.57-.08.1L418,173.42a3.54,3.54,0,0,1-.76.63l-21,12.1a.63.63,0,0,1-.23.08H396l7.56-8.73h0L404,177a88.88,88.88,0,0,1,19-15.68c2.75-1.59,4.51-2.16,5.18-1.83,0,0,0,0,0,0C429,159.94,428.24,161.63,425.82,164.42Z" style="fill:#37474f"></path></g></svg>