<svg xmlns="http://www.w3.org/2000/svg" viewBox="0 0 500 500">
    <g id="freepik--background-simple--inject-53">
        <path d="M191,27.89c45.11-12,96.57-11.88,140.46,6.88a275.64,275.64,0,0,1,43.33,23.5c104.52,68.91,108.5,171.47,90.26,221.15-10.44,28.42-38.95,45.43-63.2,60.8-21.47,13.61-59.14,29.95-69,55.47-13.31,34.43-31.65,82.62-88,65.57s-100.24-34.1-144.83-113.87S38.67,211.88,49.42,160.91C63.93,92.17,123.65,45.76,191,27.89Z"
              style="fill:#F8A335"></path>
        <path d="M191,27.89c45.11-12,96.57-11.88,140.46,6.88a275.64,275.64,0,0,1,43.33,23.5c104.52,68.91,108.5,171.47,90.26,221.15-10.44,28.42-38.95,45.43-63.2,60.8-21.47,13.61-59.14,29.95-69,55.47-13.31,34.43-31.65,82.62-88,65.57s-100.24-34.1-144.83-113.87S38.67,211.88,49.42,160.91C63.93,92.17,123.65,45.76,191,27.89Z"
              style="fill:#fff;opacity:0.8"></path>
    </g>
    <g id="freepik--Map--inject-53">
        <g style="opacity:0.15">
            <path d="M127.86,125.56c4.22-3.09.81,5.19,0,0Zm-3.42.31a1.43,1.43,0,0,0,1.59-1.73C125.64,124.34,122.52,125.87,124.44,125.87Zm6.84-25.31a6.61,6.61,0,0,1,2.5-1.17c-1.59-1.64-3.76-1.33-5.79-1.3C128,100.26,129.34,101.13,131.28,100.56ZM330,211.79c-.74,1-.22,6.77,1.74,4.8C332.82,215.51,330.34,212.21,330,211.79Zm81,73.5c.48,1.71,1.72,3.74,3.18,4.19a1.56,1.56,0,0,0,0-1h1.09c.06-1.44.43-1.75.43-3.11-1,.31-4.81-.85-4.7-.08Zm4.07-2.07a1.4,1.4,0,0,0,1.13,1.34c0-1.1-.43-1.34-1.13-1.34C415.05,283.3,415.14,283.22,415.05,283.22Zm-4.79-.37c-.72.39-.26,1,.26,1.22,0-.12.16-1.4-.26-1.22C410.15,282.89,410.33,282.81,410.26,282.85Zm31.49,11.86c2.12,0,2.62-4.37,5.2-4.94-1.13-2.61,3.14-2.2.07-4.26-2.44-1.6-1.46,1.14-2.9,2.89-1.28,1.57-3.68,2-4.61,3.77-.7,1.4-.48,2.93,2.24,2.54Zm-1.65.71a2.24,2.24,0,0,0-.46.55h1.06c.05-.39,0-1-.6-.55Zm8.36-16.15c0,.71.06,2.56.06,2.72,0-.16-1-.08-1.06.78,0,1.1.76-.08.93.61,0-.08,1.07,2.6,1.7,2.4.24-.08.87-1.39,1.26-1.79,2-2,3.31-4.48-.65-3.7,0-1.19-.46-3-1.2-1.22-.82-.58-.93-2.43-1.87-3.46C445.87,273.65,448.46,278.54,448.46,279.27Zm-13-25.66c1,1.69,1.87,3.08,4,3.32C439.27,255.91,436.3,253.57,435.44,253.61ZM393,240.73c-1.66.33.85.72,1.44.66v-.57C394.1,240.78,392.54,240.78,393,240.73Zm14.85.74c-2,2.66.69,9.19-3.68,7.89,0,0-4-2.83-4.07-3.05-.75-1.81.8-2.77,1.3-4.19-2.22-.33-4.38-1.57-6.51-1.57.42.41.37.71,1.13,1.2-.39-.26-2.63,1.39-3.22,1.79-1.77,1.24,1,1.49-2,2.12-1,.2-1.42-1.3-3-.65-1.32.53-1.48,2.46-3,2.46.22.53.28,1.38.54,1.89h-1.15v-1c-1.74-.1-2.33,4-4.31,5-1.5.79-3.81,1-5.45,1.75-.72.28-1.21,2.89-2.06.71-.72,2.42-.88,3.85.34,6.23-2.63-1.31.22,3.15.75,4.74,1.11,3.21,2.19,5.31,0,7.4,1.51,0,2.4,1.85,4.34,1.51,1.11-.16,1.67-1.63,2.91-1.91,1-.29,2,.77,2.85.52s.9-1,1.64-1.38,1.48-1.18,2.27-1.54c.56-.27,1,.63,1.71.36,2.34-1,5-2.48,7.76-.89,1.65,1,3.24,7.89,5,1.67,1.25.46-.06,1.42.12,2.6,1.56-1,1,.41.85,1.95,2.56-.53,1.41,1.93,3.3,3.62a13.13,13.13,0,0,0,3,1c1.29,0,.89-1.4,1.7-1.45s.83,1.69,1.37,1.57c2.63-.61,5.38-1.71,6.34-4.39.63-1.75.78-3.56,1.78-5.43a12.63,12.63,0,0,0,.52-11.7,7,7,0,0,0-1.58-2c-.42-.51-.42-1.43-.72-1.82a10.8,10.8,0,0,1-1.77-.87c-.43-.45-.39-1.53-.85-2-.63-.65-2.19-1.14-2.67-1.79-1.18-1.6-1.51-4.76-2.4-6.3-.28-.49-1.09-.86-1.52-1.59-.5-.89-.24-3.09-1.44-3.42A5.58,5.58,0,0,0,407.89,241.47Zm22.1-2.83c.37.63.78.43,1.26.22-.24-.71-1.65-1.14-1.26-.22C430,238.74,430,238.58,430,238.64Zm-6.44-4.86c0,.61,1.28,1.38,1.63,1.3-.31-.89-1.26-1.44-1.26-2.3a1.12,1.12,0,0,0-.51.06A2.86,2.86,0,0,1,423.55,233.78Zm-7.58-.86c.15,1.85,5,.94,4.53-1.95-.24,0-4.53,2.64-4.53,1.95C416,233.15,416,232.8,416,232.92Zm-22,3.63c0,.28,1.88.61,1-1.39A1.06,1.06,0,0,0,394,236.55Zm-6.77-.88c.13.75.85.59,1.44.3C388.12,235.49,387.86,235.83,387.18,235.67Zm11.11-2.89a2.2,2.2,0,0,0-.79,1.61C397.5,235.57,400,231.54,398.29,232.78Zm-1.84-2.32c1.2-.59,2.71.57,3.88,1.16,1,.51,1.94.2,2.62,1.53.93,1.77-.12,1.3.08,2.32.05.26-1.3.22-.72,1.4.26.55,1.77-.69,2.29-.55,1.65.51,2.29,2.14,4.35,1.45,1.25-.41,1.2-2.41,3.27-1.59.81.32,1,1.42,1.72,1.87,1.38.9.7.61,2.59,1.1,2.84.71,1.9.94.5-1.22-.21-.33-1.59-.15-1.83-.37a10.73,10.73,0,0,0-.6-1.85c-.05-.22-1.77-1.61.45-1.38a12.69,12.69,0,0,0-3.48-3.14,22.22,22.22,0,0,0-5.57-2.34c-3-1.07-2.86-.42-5.26,0-1.5.29-3.13-.5-5.22.09.22.89.54,1.75.93,1.52C396.52,230.44,396.39,230.5,396.45,230.46ZM386,227.35c-1.15.28,1,.59,1.44.51C387.44,227,386.63,227.23,386,227.35Zm13.61-1.1a7.41,7.41,0,0,1,.13,1.55h1.31c-.2-.7-.56-.37-.56-1.55h-.88C399.63,226.35,399.94,226.21,399.61,226.25Zm-5.53.08a.94.94,0,0,0-.85.31c1.37.87,2.85,2.13,4.66,1.22C396.37,224.79,395.47,226.92,394.08,226.33Zm-.31-.49c1.79-2-3.09-.65,0,0C394,225.6,393.65,225.82,393.77,225.84Zm-1.34,1.79c.48.25.69,1.59.89-.12C392.66,227.63,392.58,227.7,392.43,227.63Zm-2.35,1.67c0,.53,2.76,1,3.55,1C393.47,228.69,390.32,229.14,390.08,229.3Zm-1.05.21c-.35-.09-.7-.19-1.07-.27.63,1.69,1.35.45,1.07.27S389.12,229.57,389,229.51Zm1.63-7.86c-1,1.43-1.61,1.63-1.54,3.66.13,2.87.78-.61,2.33-.34.1-1-.35-1.79-1.13-1.73a4.78,4.78,0,0,0,.34-1.59C390.53,221.86,390.66,221.8,390.66,221.65Zm-12.35,7.73s1.34,1.88,1.18,1.67a14.61,14.61,0,0,0,.26,1.87c.94-.69.72-2.76.72-3.9h.79c.1.47,1.52,4,2.08,3.68,1-.49-.85-4.33-1.43-5.15C388,227.55,378.31,223.65,378.31,229.38Zm7.61-6.14c-1,.41-6.84-.45-6.56,2.24,1.9-1,2.42-.78,4.46-1.22.63-.17.83.63,1.59.28.4-.2,1.94-1.95.51-1.3Zm-1.36,15.54c0,1.26,4.43-1.14,4.91-1.67C387.74,236.16,384.85,238.21,384.56,238.78ZM384,240c-.54.09-.67.31-.39.73h.78c.07-.36,0-.89-.39-.73Zm-4.14-2.95c1.14,1.26,4.73.23,6-.38C384.87,236.46,380.38,236.46,379.88,237.05Zm-.46.94c-1.65.55,1.36,1.44,1.9,1.4-.22-.28-1.33-1.52-1.9-1.4Zm-3.3-1.24c-.94.08,2.37.3,3,.3-.21.06-.24-.06-.13-.38a14.07,14.07,0,0,0-2.91.08Zm-14.25-2.44c1.49,1.3,3.62,1.69,6.19,2,2,.24,4.57,1.4,6.75,1.06a2.65,2.65,0,0,0-3.27-1.4c.09-1,.76-.53,1.44-1A50.66,50.66,0,0,0,361.87,234.31Zm-4-2.1c-.27.67-.09,1,0,0Zm9.34-9.85c-1.74,1.35-.64,3.77.33,5.19,1.43,2.14,2,1.91,4.74,2.4s1.87,1.31,3.42-1.22a21.22,21.22,0,0,1,.65-2.68c.4-.74,1.9-1.06,2.36-2.16-1.73-1.24-1.25-1.57-1.64-4.31,1.33.08.92-.9,2.24-1.41a12.25,12.25,0,0,1-2.89-2.54c-1,.08-1.79,2-2.61,2.83C372,220.23,368.82,223.71,367.19,222.36Zm-13.87,4.28c.08,1,1.52,3.31,2.37,3.52-.18-1.31-2.37-3.42-2.37-3.52C353.34,226.86,353.32,226.49,353.32,226.64Zm-2.1-3.2c.33.7,1,.9,1.25,1.61a1.79,1.79,0,0,0-1.05-1.89C351.18,223.85,351.4,223.5,351.22,223.44Zm-1-1.89c0-.22-.41-.83-.41-.18a.86.86,0,0,0,.79.93C350.79,221.94,350.66,221.69,350.24,221.55Zm.46-3.31c-.74,0-1.15-.82-1.85-.72.31,1.69,2.74,3.36,3.55,4.5,1.28,1.73,2.33,4.29,3.68,6.22.92,1.28,3.11,4.81,4.34,4.83,2.74.08,1.19-2.83,3.35-3.56-.24-1.88-1.81-2.57-3.16-1.51-.15-2.14-7.32-9.44-9.91-9.76C350.59,218.24,351,218.28,350.7,218.24Zm34-5c-1.43.16-2.67,1.22-1.91,3,1.15-3,2.83.45,4.66,1.32-.65-1.52.52-1.85.54-1.89,0-.28.57-4-.6-4s-1.38,2.57-2.69,1.59C384.48,213.27,384.78,213.31,384.69,213.23Zm-3.89-6.71c0,.52,1.48,4.63,2.57,4.41-.55,1.34,1.41,2.26.93-.37-.23-1.11-2.39-3.84-3.5-4C380.78,206.72,380.88,206.56,380.8,206.52Zm1.91-.21c1.64,1.26,2.73,3.68,4.51,4.07,0-2.22-1.87-2.73-1.87-4.7-1.07,0-1.61.63-2.64.63C382.91,206.48,382.91,206.31,382.71,206.31Zm-2.5,1.3c-1,2.08-3.49,4.15-4,5.86,2.18,0,4-3.48,4-5.86C380.17,207.72,380.21,207.86,380.21,207.61Zm1-8.48c-1.94,1.16-1.46,5.51.76,6.29C381.89,204,384.7,199.13,381.23,199.13ZM382.5,190c0-.7-2.6,1.64-2.22,4.31h.78C381.06,192.52,382.5,191.64,382.5,190Zm33.55-32.37c-1.32.26-2.17,1.44-3.89,1.59-1.88.16-2.75-.25-4.73-1.47-.08.65-.85,5.59-1.65,3.78-.35.68-1.53,3.81.39,2.81v.73c-1.16.23-1.72,4.34-3,6,0-.45,0-.7,0-1.16a4.43,4.43,0,0,0-1.32,2.15c-.29-.45-.77.33-.59-.93a3.84,3.84,0,0,0-1.29,3c-2.63-1.27-7.53,1.13-8,4.31.5,0,1.2,0,1.52,0,0,1.4-1.41,2,.53,2.64,0-1.48,2.17-3.62,0-3.82.46-1.51,3.74-1.51,5.12-1.77-1.49,1-3.9,0-3.34,2.83a10.88,10.88,0,0,0,3.22-2c.61,1.55,2.29.35,2-1,5.2-.65,4.22-.94,5.45-5.72.69-2.65,1.5-4.72-.77-6.8,1.53-.32,4.1,1.27,4-.59,1.13.27,6.31-2.88,6.31-4.47C416,157.63,416.05,157.71,416.05,157.63Zm2.44-1.39c-.56.11-.83.53-1.33.82.81.53,1,0,1.33-.82C418.39,156.26,418.38,156.53,418.49,156.24Zm6.43-7.73a6.71,6.71,0,0,1-.79,1.67A1.43,1.43,0,0,0,424.92,148.51Zm15.72-7.61c-.13,0-.37-.73-.72-.42a2.55,2.55,0,0,0-.07.83C440.07,141.37,440.9,141.47,440.64,140.9Zm-1.78.23c-.25-.82-.18-1.32-.86-1.89,0,.77.14,1.44.2,2.19.46.15.79.17.66-.3C438.83,141,438.9,141.23,438.86,141.13Zm-3.43-7.85c.49,0,.83-.66.87-1-1.15-.49-1.26.28-1.71,1A2,2,0,0,0,435.43,133.28Zm30.38-10.08a12.83,12.83,0,0,0,3.75.57c-.94-2-3-.46-3.75-.57C466,123.23,465.7,123.16,465.81,123.2Zm-11.63-17.74c1.42.36,3.18-.34,4.66-.34a3.43,3.43,0,0,0-2.59-1.53c-.36,0-3.18,1.57-2.07,1.87Zm-41.09-11c1.29.56,5.56,2.27,5.56-.38-1.83-.1-4.62.18-5.38-1.22-.13.14-.59,1.4-.18,1.6C413.16,94.43,413,94.34,413.09,94.41ZM405.19,99c1.59.27,3-.1,4.53.49C409.2,97.07,406.73,97.7,405.19,99Zm1.31-1.83c.87,0-.73-.81-1.23-.79C405.27,97.3,405.8,97.21,406.5,97.21ZM401.59,94c1.42,2.29,9.45,1.67,10-1.22-1.27-.27-2.88-1.11-2.88,1.19a2.15,2.15,0,0,0-.8,0c1.39-3.19-1.64-1.37-2.66-1.4C403.19,92.45,402.68,91.37,401.59,94Zm-1.39-.58a1.16,1.16,0,0,1,0-.86c-1.46-.23-.72,1.46,0,.86C400.18,93.29,400.07,93.49,400.2,93.38Zm-.72,3.11c.44,1.18.39,1.89,1.7,1.7A9.12,9.12,0,0,0,399.48,96.49Zm-35-10.63a1.69,1.69,0,0,0-2.22-.57c.19.24,2.54,1.45,2.22.57Zm-15.31,3.4a4.06,4.06,0,0,1,1.39,0C350.4,87.44,349.7,88.87,349.18,89.26Zm5.72-2.6c.25,0,6.49-1.47,6.63-1.66,1.54-2.22-3.07-2-3.42-2.17.32-.35.45-.37.54-.8C355.93,81.51,354.6,86.66,354.9,86.66Zm-4.2-7.16c-4.59.74-3.94,3.58.28,4,3.19.34,3.42.42,3.25-1.69-.2-2.85,0-1.44-2.42-1.44a1.77,1.77,0,0,0,.33-.86C351.64,79.5,351.18,79.49,350.7,79.5Zm-4,.29c1.83,1.07,4.4-1.73,5.46-2.46-2.39-1.26-5.66-1.41-7.57,1.37a11.66,11.66,0,0,0,2.11,1.09C346.83,79.85,346.68,79.74,346.74,79.79Zm-.52.65c-.87,0-1.49-.55-2.4-.37C343.93,83,347.43,80.44,346.22,80.44Zm-2.7-4.71c-2,0-.44.91-.59,1.16C342.54,77.6,345.48,75.73,343.52,75.73Zm-51.29,33.93c-1.15-.22-3.05-1.7-2.22,1.3.74,0,2.09-.42,2.22-1.3C292.16,109.65,292.21,109.75,292.23,109.66Zm5.06-10.48c-1.16-.12-3.56,3.22-3.56,5,.68-.15,1.14-.63,1.53.29a.45.45,0,0,0,.26-.57c1.5.83.46,1.77,1.28,2.16,1.05.51,3.09.33,4.25.33-.15-1.76-1.92-2.32-2-4-.15-2,1.38-3.18,2.49-4.41a16.93,16.93,0,0,1,8.93-5.49c1.13-.31,5.9-1.4,5.4-2.75-.74-2-3.49.24-4.47.57-2.39.84-10.32,1.07-10.32,4.27a4.35,4.35,0,0,0-1.44,0c1.22,2.31-3.09,2.23-2.7,3.77.44-.1.57-.28,1-.22-.24.68.41,1.11-.67,1Zm19.79.65A3,3,0,0,0,319,99C319.52,98.63,315.43,99.83,317.08,99.83Zm-9.39-22.94c1.48,2.45,2.48.12,4.14-.21C310.3,75.72,309.13,77.42,307.69,76.89Zm-3.22,0c0,.84-.54.6-.92,1.3a6.89,6.89,0,0,0,3.68.19C306.13,76.86,306.25,75.75,304.47,76.89ZM304,79.5a3.24,3.24,0,0,1-1.06.22c.19,1,.78.44,1.52.28-.07-.39,0-.62-.46-.5C303.9,79.54,304.1,79.48,304,79.5Zm-4.61-.43c.61.58.71,1.47,1.65.14,0,1.62,1.9.1,2.16-.14a1.26,1.26,0,0,0-.07-.58A8.42,8.42,0,0,0,299.4,79.07Zm-3.75.14a5.54,5.54,0,0,1,5.07-1.31c-.39-2.61,2.16.91,2.49-1.51a9,9,0,0,1-1.64,0c.22-.35.64-1.19.79-1.37-.9,0-1.5.63-2,.79a15.21,15.21,0,0,0-1.77.58c-.48.33-.65,1.06-1.32,1.59C296.37,78.71,295.93,78.14,295.65,79.21Zm-5.25-1.95c-1.94,0-2.42.75-4.27.35.09,1.56,2.51.51,3.62.51-2.29,1.83,1.57,2.29,2.7.65C294.26,76.1,292.54,77.26,290.4,77.26Zm-37.67,2.46c.43,1.19,2.81-.41,3.28.93-.65,0-1.32,0-2,0,1.2,3.68,7.76.4,9.28-.58-1.48-1.8-3.55-.3-4.86-.73.24-.54.57-.44.46-1.08-1.55.68-1.15.1-2.05,1.81-.58-1.64-4.81-2-4.13-.35C252.77,79.85,252.66,79.56,252.73,79.72Zm-2.64,5.49c0,.4-3.52.16-3.94,1.74.85-.2,3.51-.87,3.86-.37-.53.39-3.4.9-3.44,1.16-.07.49,2.5,1.87,3.06,2.68,1.7-1.41,3.32-4.16,3.32-6.11a5.87,5.87,0,0,1,1.87,0c-.22,1.76.19.5.87,1.52.5.74-.54,1.38-.54,2.14,1.82-1.24,2,.4,2.7.28s2-1,2.76-1.16c-.8-1.16-1.61.18-1.61-1.51-.78.11-6-3.32-6.16-3.85a1.07,1.07,0,0,1-1.05,0,6.81,6.81,0,0,0,.48-1.15c-2-1-2,.17-3,.45.44-.14-.7,1.22-.83,1.26.29-.11-.5-1.72-.63-1.76a13.05,13.05,0,0,1-2.16,1c.25-.45.37-.93.59-1.3-1.17.27-6.07,1.56-2.17,2.16a11,11,0,0,1-.07,2.39c-.72-.39-.63-1.08-1.51-1.3.35.77,1.75,3.32,1.75,1,.83.08.89,1.44,2.05,1,.47-.17.72-1.1,1.17-1.15.05,0,2.46-.26,2.59.86C250.09,85.26,250.05,85,250.09,85.21ZM412.76,132c3.29,0,3.84-1.54,6.11-1,1.26.26-.24,1.22,1.06,1.58,1.87.49,1.26-1.54,2.88-.16.13-.95.71-.2,1.45-.28-.41-1.81-1-.21-.39-2.1a10.17,10.17,0,0,1,2.59-3.07c2.12-1.3,3.92-.79,3.92,1.85,2.86-.59,3.58-4.88,6.3-4.29-1.81,1.63-2.44,4.19-4.45,6-2.56,2.32-5.79,3.6-6.7,6.63a17.7,17.7,0,0,0-.2,7.37c.54,2.78.26,3.23,2.14,2.13s2.19-6.18,5.35-5.29c-.85-1.77-.21-4.17,1.63-2.89-.6-1.44-.1-2.78-.26-3.68-.11-.45-.87-.12-1.19,0a13.38,13.38,0,0,1,1.52-3.9c1.09-1.1,1.22-.47,2.59-.82.74-.16.46.57,1,.53.68-.06.87-1.28,1.44-1.32a18,18,0,0,0,2.09.14c1.65-.2.3,1.1,1.59,1.38,0-3.43,7.44-5.55,9.54-6.22,1.91-.59,2.11,1.85,1.45-1.3-.6-2.81-1.91-1.69-3.55-2.89-.95-.78,3.9-.59,3.88-.57,1.4-.62,1.85-1.47,1.18-3,1-.07,1.13,1,1.44,1.09a19.72,19.72,0,0,1,2.5.57c1.33.69,1,1.13,2.7,1.58,2.33.65.54.45,1.77-.08,1-.41.21-1.5.8-2.07s4.07,1.12,2.63-1.68c-.52-1-4.18-1.69-5.07-1.29.81.61,1,2-.33,1-.48-.37.2-1.82-.43-2.39-.33-.29-1,0-1.24-.31a20.43,20.43,0,0,0-2.4-1.67c-1.37-.81-2.24-1.35-3.68-2.13-3-1.58-9.34-2.81-11.24-.66,3.31,1.48-5.2,2.8-.67-.44-1.37-1.13-2.51.42-3.88.63-1.67.25-4.59.47-6-.33a10.35,10.35,0,0,0,0,1.67c-2.09-2.56-2-5.51-6.31-5.22-1.6.11-3.16.67-4.8.3-2.13-.48-2.54-1.66-4.4-1.89.39-.53-.32-.32.64-.86-2.79-1.73-6,2.62-4.79-.94-1.38,0-2.79-.84-4.25-.87-2.77-.07-2.13.42-4.68.87,0,1.25,1.32,1.18,1.32,2.52a17.13,17.13,0,0,0-3.09-.54c.24.38.89.94.65,1.56-1.26-.26-1.5-1.33-2.69-1.58.06,0-3.12,0-3.29,0-1.72.5-1.42,2.35-2.75,2.35a27.59,27.59,0,0,1-2.65-2.88c-.22-.64.72-2.68,0-3.63-1.13-1.46-2.05.13-3.21-.21-2.61-.75-3.43-2.71-3.43,1.24-2,0-3.18.24-5-.59-.66-.3-1.05-1.28-1.88-1.51-1.59-.45-4.44.38-6.16.38V97.72c-.61.22-1.59.89-2.14.29.14,0,2.93-1.51,1.64-1.87-1.46-.43-2.27,2.09-4.2,1.74.28,1.89-2.6,1.73-4.16,1.73,1.67-.18,9-5.08,9.16-6.08.7-4.35-6.79-4-8.49-3.26.33-.45.59-.54.59-1.22a25.39,25.39,0,0,1-2.89-.23,10.09,10.09,0,0,1,1.13-1.57c-3.81-.33-3.95,1.11-6.32,2.45a1.13,1.13,0,0,1,.33.78c-2.61-.67-2.81,1.28-5,1.55-.8.08-2.24-1-3.42-.82a35.61,35.61,0,0,1-3.76,2,23.6,23.6,0,0,0-3.32.92c-.43.19-2.74,1.08-3,1.5-1.09,1.78,2,.58.09,2.12-2.11,1.7-6-.48-8.19,1.6.57,1.5,4.38,3.94,2.24,4.12-.61,0-1.41-1.23-1.78-1.36a6.57,6.57,0,0,0-4.4-.31c.61.33,1.39.26,1.39,1.23-4.9-.34.79.9.57,2.61-.79-1.36-2.9-.47-3.86-1.8-.34-.46.05-2.76-.34-3.62a.55.55,0,0,1-.53.14c0,2.67-1.44,1.59-1.7,3.18,0,0,.4,4.44.5,4.6,1.4,2.52,1,.24,2.73,1,2.13.92,2,2.14,2,3.68,0,.55,1.66.83,1.92.87-2.74,2-2.18-5.51-5.9-2.18a8,8,0,0,1-.15,2.47,4.14,4.14,0,0,1-1.79,1.7c-2,1.24-2,.73-4.51.54.55-.9,2.63-.75,3.68-1.73a4.71,4.71,0,0,0,1.63-3.52c-1.52.14-2.06-6.46-1.91-8.31h.85c.45-2.42-3.16-3-4.73-1.74-.2.18-2.7,4.6-2.76,4.81.43-1.31.45,3.14.08,2.34.33.77,1,.58,1.44,1.64.29.69,1.7.66,1.44,1.74-.44,1.89-2.16-.7-2.24-.73-1.92-.57-3.4-1.34-5.25-2-1-.36-4.43-2.34-5-2.24-2.42.41,4.57,3.47-.11,5.49,0-4-7.62,2.92-6.21-1.65-2,1.3-4.31,1.35-6.35,2.84-.35.27-4.73,4.68-4.43.23,3.32.12-.56-2.34-2.44-2.34.83.9,1.42,5.5.59,6.06a5.42,5.42,0,0,0-2.57-.54c-.48.1-1.82,1.76-2.76,1.84a5.61,5.61,0,0,1,.93,2.26c-1.35-.77-2.94,0-4.07-1.61-2.72,1.61,1.37,1.81,1.37,2.75,0,.73-2.06.39-2.22.28-2-1-1-.79-1.93-2.44-.75-1.43-2.38-3.24-3.6-5,1.09.22,12.61,5.25,11.24-.65-.33-1.42-3.46-2.73-4.66-3.22-1.88-.77-4.7-.21-5.53-.77,1-2.22-2.92-1.51-3.81-2.41,1.48,0,.72-.75,0-1.19-1.91-1.11-1.13.28-2.48.28a9.52,9.52,0,0,0,.41-1.41,5.06,5.06,0,0,0-1.82,0c0,.73-.09,1.13,0,1.78-.33-.91-.63-.73-1.27-1.38-.24,1.58-.89,2.26-.89.22a2.7,2.7,0,0,1,.94,0v-.94c-.55.1-4.12,2.19-2.83.66-2.75-.31-2.51,1.34-1,2.23-.8-.34-1.85,0-2.68-.35,0,.83.13,1.06-.41,1.52a2.28,2.28,0,0,0-2.29-1.88c.37,1.45-.87,3.68-1.11,1.59-1.61,1.77-.11.51-.67,2.39-1.35-.6-1-.18-1.44-1.67-.55.21-.87.87-1.72,1.3.24.48.2.26.2.73a3,3,0,0,0-2.62,1.58c1.37-.48,3.38-1.88,4.84-1.08-1.94.49-4.8,4.12-5.17,6.74a4.51,4.51,0,0,0-2.19,1.35h1.06c-.15,1.42-3.15,2.85-4.07,2.62a2,2,0,0,0,.13,1.08c-3.57.82-4,3.1-4.73,5.94,3-.1-1.06,2,1.64,2.2-.05.81-.42.94-.33,1.71,2.9,0,4,.37,5.92-2.32,1.27.24,2.23,5.25,3.36,6.65.31.41-.72,1.12.09,1.45,1.89.81,1.08-.69,1.87-1a33.6,33.6,0,0,1,3.42-1.42,1,1,0,0,0,0-.74c-.7.09-.91.07-1.31-.28.4-.71,2.11-3.05,2.24-3.42.42-1.2,2-2.24-.39-2.24,0-1.91-1.5-3.7.31-6,.91-1.18,2.59-1.24,3.42-2.46.56-.79.58-3.08,1.87-4,1-.68,3.29.48,3.46,1.78.39,2.81-7.86,4.38-4.07,9.22,2.66,3.4,7.32-.73,10.45,1.24-1.74,1.95-4.24,1.1-6.31,1.38a38,38,0,0,0-3.7,1.22c.3.13.52.29.8.41a4.89,4.89,0,0,0-1.65.45c.73,2.07,2.09-.33,2.58-.08.9.49,1,1,1.77,1.6-2.26,3.16-2.11-.52-3.42,0-1.59.64-1.48,4.42-1.52,5.36-1.35,0-3.09-.82-2,1.22-2-2.28-3.16.16-5.4.38-.76.06-4-2-4.23.27a4,4,0,0,1-2.15-.8c.24-2.5,3.5,1.06,3.17-3.39a7.18,7.18,0,0,1-2.37.73,8,8,0,0,1,.39-1.55.89.89,0,0,1-.78,0c.3-2.36-.26-2.79-1.92-.91-1.17,1.3-.32,2.7-.37,4-.13,3.26.74,1.47-1.56,2.93a9.92,9.92,0,0,1-4.51,1.51c1.68,2.38-1.59,2.13-2.83,3.17-.13.1-1.14,2.69-1.51,2.81-1.24.43-2-.81-2.81-.73,1.92,3.64-1.89,1.1-3,2.07-1.38,1.18.37.78.82,1.49.64,1,1.4,1.4,2.07,2.91,3.73,8.2-5.33,3.13-9,4.84.7,2.62-.33,5.7.26,8.24.54,2.28-.16.87,1.65,2.15,1.14.82,1.74.05,2.83,1.53.24-.3.2-.45-.13-.43,1.88-.73,4.23-1.58,5.73-3.11.61-.63.91.16,1.37-.55.27-.43-.56-1.14-.52-1.18a15.75,15.75,0,0,1,.85-2.4c.61-.81,3.27-1.67,3.74-2.09s-.39-1.57.61-2.24c.83-.57,2.34.71,3.27.53.35,0,2.09-2.36,3-2.2,1.28.24,2.55,2.91,3.61,3.84,3.18,2.73,8.8,6.45.87,6.45,2.12,4.09,5.47-.16,6.38-2.58H250a4,4,0,0,1,0-.77,11.82,11.82,0,0,0,2.39.51,8,8,0,0,0-5.07-4c.21-1.37-1.85-3.07-2.77-3,.28-4.56,2.94-.51,5,1.12,1.39,1.11,3.2,1.89,4,3.45.48,1,1.15,3.58,1.64,4.64a1.81,1.81,0,0,0-1.18-.2c.43,1.24,1,1.83,1.78.85.79,4.48,3.49-.32,5-.59-.24-.46-.56-.85-1.06-.85a1,1,0,0,1,0,.85c-.77,0-2.4-2.66-2.16-3.23.8.49,1.24.77,2.11.34a.44.44,0,0,0-.46-.34c3-4.82,4.62,7.69,5.08,7.69s.41-1.63.41-1.85c1.15,1.12,2.07.89,3,1-.95-.15,1.51-.7,1.46-.7.94,0,1.36,1.26,2.9.86a8.83,8.83,0,0,1,0-1.26c2.88.65,3.11,1.75,2.05,5.12a7.35,7.35,0,0,1-2.62,3.54c-1.13.53-2.19-.73-3.24-.12,1.65.86,2.79,6.29,4.66,4.19,2.79,3.22,3.48,7.61,5.31,11,1.16,2.12,3.55,3.78,4.55,6.22,1.35,3.3-.45,5.29,3.34,5.37,1.7,0,3.72-1.79,5.4-2.56,1.93-.85,2.87-1.75,4.4-2.52,2-1,3.17-.57,4.53-2.32.65-.77,2-2.77,2.83-2.38,0-2,0-2.12,1.39-2.75-.15-1-1.65-2.07-2.31-2.68-1.19-1.12,0-2.28-1.7-.43-.19-.87-.43-2.79-1.06-3.32a3.51,3.51,0,0,0-1,2.61c-2.63-.25-6.73-.14-1.9-1.1-.08-.33-3.78-1.47-4-1.59a9.77,9.77,0,0,1-2.48-3.54c-.5-3.33,1-2.24,2.75-.85,2.22,1.67,3,2.44,5.59,3.38.44.16,1.5-.17,2.11,0s.57,1.28,1.2,1.58a17.7,17.7,0,0,0,5.44,1c3.16.12,4-.19,6.58,1.4,1.37.86,1.5,1.94,3.55,2.36-3.63,0,.53,2.08,1.37,2.38,1.36.49.65-2,2.1.23.73,1,.15,2.44.34,3.62a33.59,33.59,0,0,0,1.9,6.34c.52,1.47,1.46,6.27,2.76,7.1s2.73-.67,3.49-2.4a12.22,12.22,0,0,0,.65-3.8,14.93,14.93,0,0,1,0-2.52c.68-1.94.53,0,1.81-1.43,2.46-2.6,5.36-6.55,7.64-7.93a23,23,0,0,1,4.78-1.38c.74.52,2.44,4.74,2.44,5.69,2.26,0-.33,2.08,1.32,3.5,1.11,1,2.37-1.08,2.57-1,1.76.53,3,5.62,2.94,7.71,0,1.12-1.57,2.3-.89,4.22.41,1.14,2,2.19,2.57,3.64.69,1.75,2.11,8,5.16,6.43-1-2-1-5.48-2.09-6.92-1.53-2-3.33-1.91-3.75-4.84-.1-.67-.69-3.6.31-4.52,1.61-1.44.28-.35,1.85.59,1.37.81,1.24.77,2.46,2.44.28.39,1.28.69,1.42.94.45.81-.13,1.52.52,2.77,1.31-2,3.31-2.57,4.35-4.14,1.92-2.88.72-5.3-.85-7.54-2.39-3.42-3-7.57,2.49-7.57.36,1.75-2,3.66-1.11,4.56,2.26,2.19,2.74-4.24,2.68-4.2,1-1,3.11-1,4.22-1.42a9.12,9.12,0,0,0,3.53-2.09c1.91-1.57,5.42-5,5.87-7.84.33-2.07-.67-.79-.86-2.2-.11-.77.58-.6.34-2-.3-1.67-2.41-3.74-2.37-4.94.07-2.3,2.2-1.53,3-2.75s.66-1-1.3-1.81c-.87-.32-.64,1.12-1.77,1.12.31-2.71-2.91-.81-1.48-3.34a19,19,0,0,0,2.7-1.18c2.88-1.2,2-1.58.85,1.75.85-.53,3.13-1.85,4.09-1.38,2,1,.42,1.34.59,3.17,3.11-1.42,2.16,4,1.83,5.64,2.22.26,4.73-1.36,4.68-3.72,0-2.12-2.48-2.37-2-5.31.11-.59,1.09-.15,1.18-.43a22,22,0,0,1,.54-2.63c.44-.67,1.18-2,2-2.44.48-.22,2.22.21,3.11-.08a4.81,4.81,0,0,0,2.42-1.59,31.3,31.3,0,0,0,4.42-5.71c1.19-1.94.85-3.48,1.65-5.47,2.55-6.6,1.4,6.4,1.4,8.21.48-.52.85-.24,1.28-1.3.59.61.07,1.1,1.33,1.16-.35-2.64-2.92-5,.65-5,.09,0-1.7-9-1.78-10.05h-.52c.1,2.15-.53,2-.53,4-1.5-1-1.2-3.09-3.94-4-.31,2.19-1.28,1.46-2.11,0a2.83,2.83,0,0,1,0,1.16c-1.16-.19,0-1-.85-1.81-1.85,2,0-1,.65-1.88,1-1.26,2.12-2.11,3.25-3.66C407.06,132.24,409.19,132,412.76,132Zm-191.67,1.35a2.57,2.57,0,0,0-1.38,1.67c.55-.17,2.38-1.88,1.38-1.67C220.85,133.46,221.17,133.38,221.09,133.38Zm1.39,16.21c1.33,0,2.33-1,3.09-1.16,1.16-.2,2.81.41,3.75-.06a3.57,3.57,0,0,0,1.76-4.27c-.28-1.06-1,.63-1,.59-.44-.51-.37-1.34-.72-1.67-.59-.57-1.4-1.91-2.18-2.91-1.18-1.52-1.33-1.16-1.52-2.38-.11-.81,2.93-4-1.57-2.52.37-.71.43-1.3,1.13-1.75-1.48-1.63-2.13.89-2.68,1.38-.09.08-3.09,1.2-.74,1.65-.21.75-1,1.85-.92,2.32.77.1,1.75.79,1.95-.14-.18,2.82,1.17,1.26,2.13,3.54,1.09,2.64-1.15.83-2.31,2.4a8.49,8.49,0,0,0,1.31.14c0,.79-1.77,1.12-1.18,1.87.37.47,2.22-.22,2.83.43C225.33,147.29,221.67,149.59,222.48,149.59Zm-1.13-7.44c2.92-.47-4.64-4.6-2.88-.74-1.39.29-3.26,2.42-1,2.3-3,4.72,1.16,1.59,3.68,2.2C221.26,144.77,221.37,143.55,221.35,142.15Zm70.36,110.16c0-2.79,1.81-8.52-1.18-9.83a8.73,8.73,0,0,1-1.7,3.79c-1.11,1.12-2.83.65-4,1.85-.87.94.11,3.85,0,4.62-.2,1.46-.78,1.65-1.05,3.48-.36,2.38.14,5.9,3,5.21s1.88-1.61,2.37-4.34c0-.32.73-3.42.79-3.48C290.23,253.27,291.71,252.78,291.71,252.31Zm-21.84-69c-1.25-3.29-2-2-4.73-2.4-4-.53-7.05-1.93-10.78-2.87,0,4,.07,3.24-2.37,3.28.5,0-2.14-.86-1.89-.73h-1.92a3.54,3.54,0,0,1-.39-1.16c-1.16-.43-4.67-1.06-5.4-2.14-1.35-2,1.52-2.36-.92-4.09.65-.59.57-.67,1.46-.87-1.24-2.32-4.64-.17-6.45-.13s-4-.89-6.44.29c-1.66.77-2.79,1.85-5,1.79-2.66,0-4.09-2.08-4.09,1.73h-2c.88,3.52-1.45,1.24-2,2.4-.84,1.85-.56,4.05-1.32,5.23-.46.69-2.2,1.63-2.9,2.6s-1.67,2.69-2.5,4-4.14,4.76-3.68,6.8c.13.56,2-.25,2.3.44s-.37.82-.26,1.14c.51,1.51-.35,4-.46,5.52-.14,1.85-.28,3.43,1.58,5.55a85.59,85.59,0,0,0,6.05,6.31c.76.73,1.13,2.4,2.76,2.76,1.83.37,2.07-.48,3.81-.73,1.51-.2,2.66.53,3.69.49,2.19-.08,2-1,3.81-1.67a10.58,10.58,0,0,1,5.38,0c1.32.65,1,1.71,2.93,2.2,3.36.81,3.18-1,3.25,2.89a8.65,8.65,0,0,1-1.57,5.21c4.21,1.46,7,10.94,6.3,15.46s-3.16,4.74-1,9.56a38.69,38.69,0,0,1,2.49,8.1c.76,3.41,3.19,5.73,4.07,8.83.76,2.64-.4,3.48.8,4.92,3.18,3.82,11.59-.69,14.07-3.62a21.68,21.68,0,0,0,3.14-4.48c.56-1.34-.18-3.25.13-4.07.28-.65,2.37-1.06,3-2,1.79-2.56-.91-3.66-.39-6.35.4-2.17,4.07-3.29,5.12-4.35,2.61-2.57,2.76-5.44,2.11-9.3-.37-2.18-2.2-5.41-1.45-8.06,1-3.56,5.15-7,7.62-9.4a23.77,23.77,0,0,0,4.87-6.22c.83-1.61,1.37-1.75,1.57-3.91.33-3.39.83-2.58-1.83-2.6-3.7,0-4.79,1.52-7.36-1.57-1.48-1.81-3.87-3.5-5.27-5.51s-2.83-6.49-3.68-8.83c-1.28-3.58-2-7.26-4.35-10.44C269.78,183,270,183.49,269.87,183.28ZM136.14,294c-.51-.12-.48-1-.85-1,.17,0-1.18,1.71-1.18,1.69a17.45,17.45,0,0,0,2.63,2.44.79.79,0,0,0-.13.59c-4.22,0-.85,4.09-1.52,5.78a3.08,3.08,0,0,1,1,0,.57.57,0,0,1-.59.67c.69.79.34.33,1,.51a31,31,0,0,0,3.27,4.48c2.52,1.7,4.9.87,7.31.67-.11-.86-3.13-1.81-3.76-3.46s-1.94-5.7.47-5.43c0-1.67,3-3.55,2.83-4.75-.24-1.42-3.3-.56-2.24-3.39.33-.9,2-.41,2.37-.9s-.12-1.18.33-1.71c-.3.37,1.55-3.17,1.31-1.87.43-2.32-1.57.06-1.13-3.37,3.09,1.36,3.7.12,3.24-3,2.55.09,5.62.19,6.79-2.54,1.25-2.89-1.15-2.24-1.61-4.76,2.84.41,3.92,1.51,6.12-.65,1-1,1.85-5.11,3-4.92-.17.57-.26.63-.13,1.16,3.39-1.86,2.44-7.13,4.29-9.55a8.65,8.65,0,0,1,4.57-2.89c2.7-.85,3.44-.65,4.95-3.56,1.8-3.43,1.06-8.64,2.5-11.41,1.06-2,3.37-3.21,4-5.53a3.7,3.7,0,0,0,0-2.87c-.78-3.09-.74-1.06-2.5-2.59a8.87,8.87,0,0,0-5.05-2.48c-1.27-.28-5.78.06-3.9-1a8.54,8.54,0,0,0-2.75-1.5c-2.31-.49-1.8.08-3.42.85.14-.24.83-1.93.85-2.07a13.07,13.07,0,0,1-2.06-.61c-.59-.2-.25,1.46-1.49,1.3.24-.61,2.64-3.93.38-3.93.39-4.39-3.31-4.61-5.76-5.31-2-.52-6.42-2.76-6.42-5.22-1.13.42-3.14-.15-1.39-1-1.16-1.65-3.59.67-4.27.65-2.51-.1-3.72-2.42-6.12-2.91,0,1.43-.89,1.1-1.65,1.95-.11.13.23,2.08.13,2.4a3.29,3.29,0,0,1,.39-4.76c-2.22-.69-8.43,3.85-8.8,6.92-.2,1.71,1.42,3.5.37,5.86-.57,1.3-3,4-4.27,4.48.22,2.19-.61,2.6,1.44,2.76-.85,1.63-2.85,2.61-1.7,5.27.28.67,1.57.82,2.11,1.65a18.24,18.24,0,0,1,1.4,3c.72,1.95,1.39,5.21,2.54,6.67,1.57,2,3.45,2.57,5.41,4.25,3.31,2.87,2.09,9,1.56,13.45-.3,2.44-1.13,4.78-1.39,7-.3,2.69,0,5.49-1,8-1.09,2.81-1,4.45-1.7,7.61,0-.19,0,2.07,0,1.5,0,.49-.89,1-.7,1.59.92,3,1.72-1.51,2.66-1.59a28.46,28.46,0,0,0-1.2,6.31c-.52-1-.65-.43-.83-1.75C135.28,291.51,136.2,293.49,136.14,294Zm3.3-93.38c2.29-.57,5.6-.14,7.89-1-1-1.38-4.14-.94-6.06-1.22-1.22-.16-3.74-1.75-3.94.37a1.69,1.69,0,0,0,2.11,1.87Zm-6.18-.45a2.53,2.53,0,0,0-2.76-1c.69,1,2,1.89,2.76,1C133.15,200.05,133.06,200.45,133.26,200.21Zm2.37-3.24c-1-1.77-5.11-2.82-6.85-3.56-1.12-.44-3.69-1.6-5.1-.71s-1.16,1.14.5,2c.72.4,1.15-.84,1.85-.7,1,.17,1.57,1.08,2.09,1.29A17.74,17.74,0,0,0,135.63,197Zm63.51-78.48c1.21-.22,1.63-.19,2,1.15a6.42,6.42,0,0,0-2.62,0c0,.29.09.59.13.88,2.68-.49.61,1.18,2,1.73.29.1,3.38.45,3.55.43,2.36-.13,2.57-.68,4.6-1.88,1.72-1,2.48.41,3-1.59.22-.8-1-.82-1.32-.87.58-3.6-3.88-.39-6.08-.71-.33,0-2.3-.34-1.94-.29-.95-.1.07-1.63-.93-.3-2.4-.88-3,1.59-2.35,1.45Zm-40.51,28.92c-.52.37-3.57,5.78-3.35,6.19.46.85,2.09,0,3,.33,1.35.44,1.65,1,3,1.74,2.05-3.41.12-4.59-2.89-5.65,0,.06,1.83-3.58.26-2.61C158.46,147.54,158.8,147.33,158.63,147.41Zm-7.1,3.2c-1.31-.47-1.89-1.08-3.16-.88,1.2.8,2,2.75,3.16.88C151.34,150.55,151.47,150.71,151.53,150.61Zm37.11-38.91c.37-.15.78.44,1.07.53,2.33.82,2.33-.15,4.24-1,1.7-.72,5.91-1.73,6.51-3.48-2.3,2-7.7-2.63-2-2.37-.24,0,2.58,3.25,3.22.43.24-1-2.11-3.54-2.84-4,.4-.39,3,1.68,2.21-1-.37-1.27-1-1.29-2.55-.73.3-.5.59-.46.78-.93a3.13,3.13,0,0,1-.78-.38c.83,0,3.22,1.27,4.33.45,2.55-1.87-1.57-1.2-1.57-2.11,0-.22,3.88-.42,4.14-.93-.81-.89-3-2.41-.39-2.65.06-2.34-3.14-2.33-2.77-3.65.15-.54,1.7-.74,2.11-.58,1.68.71.29.87,1,2.53.46-3,1.52-3.72-1.78-3.72.91-1.11,0-.3,1.58-1.12-.93-1.55-3.2-.06-3.22-.07-2.35-2.08,5.94-7.73,6.71-8.81-1.05.07-2.07-.13-3.11-.16,2.15-.49,3.37-.42,5.22-1.74.5-.36,3.16,0,2-1.94-.2-.35-3-.19-3.22-.16a37.36,37.36,0,0,0-5.27,1.08c-1,.32-5.12,2.72-5.71,2.61,2.36-3.27,3.66-3.76-.65-4.46,0,1.89-1.24,1.7-2.9,2,.27-1.53,1.24-.92,2.24-1.44-2.45-2-6.92,1.1-9.6.64.72-2.37,11.68-2.56,14.2-2.88V71a24.88,24.88,0,0,1-5.59-.79c-2.92-.53-5.76.22-8.61-.1,2.09-1.58,6.34-.88,9.34-.88-.34-2.56-13.48-1.5-15.19-.9s-.18,1.32-2.45,1.59c-1.34.17-2.45-.7-3.81-.76a14.74,14.74,0,0,0-5.16.8c.42.93,1.42.53,1.42,1.84-.54-.45-2.9-1.54-2.14.07-.19-.4,4.18,2.44,2.94,2.44-2.78,0-4.87-2.45-7.81-2.45,0,.69,1.81,1.88,2.07,2.92-1.75-.55-2.94-2.31-4.82-2.51.48,1,.63,3.59-.93,2.58,0,0,.74-2.1-.29-2.72-1.24-.77-5.18,1.9-6,1.44A8.93,8.93,0,0,1,158,75.37c-1.26,0-2.31-1-3.62-1.12-.85-.14-.63-.88-1.76-.29s-.22,1.47-.52,1.65c-1,.66-3.18.92-5.14,2.07-.77.46-2.66.42-2.55,1.9a8,8,0,0,0,2.76,0c.75,0,0,2.71-.19,2.86-.35.34-2,.25-2.51.39-1.35.39-3.78.22-5.15,1.12-4.45,2.88,3.78,3.12,6.2,3.12-.48,2.21-5.46.58-5.46,1.84,0,.62,2.17,1.3,2.63,1.41-.37,0-.41,0-.52.29.67.59,1.94,1.81,2.92,1.42-.07-.16-.5-.58-.27-.74,1.48-1,7.84-.23,9.59,1a12.54,12.54,0,0,1,4.72,8.82h.63c-2.52,5,3.53.89,5.25,5.36-1.63,0-3.16-1.2-4.66-.51.37,1.23-1,3.24,1.31,3.3,2,0,2.65-1.52.32-1.91,3.31-.44,2.51,1,3.44,3.54-1.48-.09-2.65.2-2.61,1.8-3.29-.47.17,4.26.37,5-.08-.2,1-.5,1.18,0s-1.07.84-.74,1.17c-.52-.53.59,2,.46,1.67a4.82,4.82,0,0,1,1.52-.81c-1,2.27,0,6.12,2.24,8,1,.83,5.92,2.93,6.71,2.44,1.09-.65.8-3.13,1.24-4.25.28-.67-.67-.87-.3-1.67.19-.43,1.17-.14,1.48-.79,1.33-2.69.52-5.25,3.85-5.57-.09-1.75.07-.49.92-1.08C181.54,121.31,188.6,111.71,188.64,111.7ZM116.88,89.33c1.4,2.38,7.73,1.52,10.06,1.09.62,1.74,4.36.66,4.21-1.6-.35.19-.7.35-1.05.51-.11-.35-.22-.72-.34-1.08,1.5-.3,1.43-.73,1.06-2.17,1.88.57,3.48.26,2.16-1.65-.2-.3,2-.07,2-.37,0-2-3.35-1.35-4.2-.52-.09-.23-.18-.48-.26-.71,2.15-1.66,4.48.64,6.49-1.38-.38-.32-.77-.62-1.16-.93a5.58,5.58,0,0,0,4.14.06c-.65-.55-.55-1-1.38-1.37,3.1.82,6.76-2.91,9.65-3.75-.93-1-3.4,0-5-.24,1.3-1.84,8.49-.06,8.95-2.6.3-1.73-6.25-2-7.82-1.59-.61-.67-3.1-1.41-4.68-1.6-.61,2.42-7.67-1.1-7.15,1.68-2-.81-6.34-1.27-7.84,1.08,1.66-.1,3.47.28,4.29,1.74-1.67-.48-3.88-1.64-5.33-2s-2.75.56-3.18.62c-1.59.24-4.77,1.17-6.69,1.62q0,.32-.06.66c1.63.56,1.74,1.59,3.55,2.19,2.59.88,2.68-.65,4.92-1-4.49,2.89,2.48,1.89,3.7,1.55,2.51-.68,4.25-2.29,6.9-2.19a5.15,5.15,0,0,0-2.91,1.43,14.16,14.16,0,0,1,2.7.15c-1.33,1.09-5.56,1.45-7.48,1.58v.72c1.27.59,2,1.63,3.55,1.6-2.24.67-5.59-1.75-8.1-2.1.2,2.36,4,4.26,6.19,4.13-.5.64-.72,1.12-1.13,1.65-3.75-4.05-9.37,2.24-2.42.88l-1.13.65c.82,1.46,2.31,1,3.42-.29-1.27,3.75-5,.2-7.36.52C119.1,88,118.19,88.69,116.88,89.33Zm.59-4.71c.37-.49,1-.18.85-1.51,4.2.7,3.22-2.15.61-4,.15.11-8.49-4.67-8.29-3.28.62.15,1.17-.34,1.32.51a12.25,12.25,0,0,1-2.57.43c.53.4.7,1,.92,1.23a14.63,14.63,0,0,0-1.77.07,8.16,8.16,0,0,0-.47,2.25c1.58,1.74,3.89.25,5.59,1.81-1,.07-2,.63-3,.79A6.2,6.2,0,0,0,117.47,84.62Zm-3.42,2.47c-.19.34-.39.67-.59,1a3.38,3.38,0,0,0,3-.22C115.8,86.62,115.19,86.85,114.05,87.09Zm1,8.75c1.3-.29,15.83,1,13.68-2.66-1.27-2.22-7,.16-8.76.11-3.68-.09-4.18-4.28-7.47-3.23C113.77,92.37,112.49,94.84,115.1,95.84Zm-9.13.3h.92C106.48,95.05,106.48,95.91,106,96.14Zm2-1.81c.68.66,4.25,2.48,3.88-.08C111.59,92.17,108.61,93.17,108,94.33Zm3.24-3.12c1.46-1.68-.69-2.87-2.24-2.6C105.8,89.17,109.76,91.23,111.24,91.21Zm-2.7-3.47a14,14,0,0,0,3.47-.49v-.73C110.55,86.3,109,86.17,108.54,87.74Zm.26-1.81c3.29-.88-2.2-2.52-3.22-2.16C106,85.49,107.09,86.53,108.8,85.93Zm-3.68-5.41c-.48-1-.82-1.55-2-1.31v.86A2.73,2.73,0,0,0,105.12,80.52Zm-.85,6.21c1-3.62-5.53-5.35-8-4.35a7.81,7.81,0,0,1,2.1,1.9H97.29C98.26,85.74,102.4,85.94,104.27,86.73Zm-2.5.15c-.83-.36-1.09-.89-2.11-.58C100.05,87.54,100.7,87.13,101.77,86.88Zm-.61,6.3c1.35-.74,2.16-.17,2.44,1.51,1.76-.08,3.07-.75,2.87-2.82-.24-2.26-2.32-1.31-4.18-2.1a6.24,6.24,0,0,1,1.72,2,18,18,0,0,0-3.11-1.29c.13.61.15,1.18.33,1.8-1.22-1-1.75-2.7-3.47-2.9C97.55,91.59,99.37,92.69,101.16,93.18Zm-3.81.58c.15.11,1.44,1.75,1.44.06C98.79,92.86,97.53,93.76,97.35,93.76Zm.46-5.44a4.19,4.19,0,0,0-1.9-1.87C96,87.9,96.63,88.71,97.81,88.32Zm34.27,26c.94.31,3.55-.06,2.62-1.69A1.56,1.56,0,0,0,132.08,114.29Zm-21.25-12.23c.39-.78,1-.49,1-1.66,1.83.72,2.59-1.07,3.55-2.52-1.35-.55-4.2-1.59-5.4-.64S108.44,102.8,110.83,102.06ZM105,104.3c3,0,3.64-3,.72-4.47,2.22-.78.48-2.27-.77-2.72-.23-.07-2,1-3,.77,1.85,2.12.43,3.47-1.62,2.23C100.42,101.57,103.82,103.6,105,104.3Zm-7.36-4.55c.56-2-1.74-2.38-2.83-1.29C95.89,99.52,96.61,100.25,97.68,99.75Zm-4.34-1.66c.11.12.83,1,0,0ZM87,84.93h4.68C90.82,83,88.23,83.56,87,84.93Zm1.33,3.18c1.31,0,3-.17,1.83-1.59.55-.27.76,0,1.13-.72a6,6,0,0,0-4.35.86C87.16,87.63,87.62,87.76,88.29,88.11ZM86,86.81c-.41-.94-.52-1.56-1.78-1.31C84.5,86.69,85.05,86.57,86,86.81Zm-1.32,3.61c-1.86.6-3.73,2.72-2.42,3.88s5.44,0,6.9.11c-.5.64-3.57,0-3.37,1.19.28,1.35,2.57.51,3.33.35,1.61-.32,7.64-1.19,7.2-3.65.16,1-4-2.5-3.61-2.39-1.92-.62-2.64.61-1.65,2.53.37.17,1-.09,1.1.41C92.32,93.63,85.64,90.8,84.66,90.42Zm.39-1.37c.43.2.56,1,1.59.72,0-.24,0-.49-.07-.72A2.8,2.8,0,0,1,85.05,89.05ZM79.8,92.16l-.66.86c1.44,0,1.16.28,1.92-1.23Zm2.11-1.82a3,3,0,0,0,1.83-2.74c-4-1.07-5.25,3-8.88,3.39,1.71,2.85,4.26.26,5.79-1.29C81,91,81.48,90.06,81.91,90.34Zm.91,18.88c2.84-.26,2.92,1.38,5.14,2s3.88-1,5.84-1.45c1.18-.24,9,1.17,6.25-1.22,1.09,0,1.44-.62,2.11-1-2.43-1.83-3.42-1.82-4.64-4.36-.47-1-2.52-5.78-4.18-3.5-.76,1.07,2,3.56-.06,3.39-1-.11-1-3.21-3-3.33.24.45.43,1,.65,1.44a10.15,10.15,0,0,1-2.09.73,11.44,11.44,0,0,0,.44-1.44,3.87,3.87,0,0,0-3.68.28c.65-2.71-1.68-1.42-2.88-.84-2.16,1.06-2.24,1.59-3.22,3.44,1.44.62,3-.4,4.33.72A5.35,5.35,0,0,0,81,105.4c1.47.87,6.2-.44,7,1,.27.54-5.2.81-6,1.36C82.21,108.26,82.52,108.74,82.82,109.22Zm11,2.83c1.18-.35,1.92-.62,2.18-1.73a9.61,9.61,0,0,0-3.49,1.44Zm-18.34-7.82c2.33.39,3.27-3,5.28-4.17,3.28-1.85,4.07-2.4-.12-3.34-1.08-.25-6.5-1.65-7.62-.61-.63.58-.82,4.84-2.2,6.54a4,4,0,0,1,3.55,2.6C74.72,104.92,75.09,104.57,75.46,104.23Zm-54.78,26.2c-1.36-2-2.77.26,0,0Zm22.1-1.59c.32-2.3,3.11.53,4.55,1,1.87.61,3.64.16,5.46.81,3.19,1.14,5.4,4.35,8.61,5a7,7,0,0,0,1,2c.16.2,1.55.89,1.72,1.22,1.11,1.83,1.75,3.62,2.72,5,1.7,2.52,2.34,2.74,4.77,4.33,1.74,1.14,3.81,3.07,3.55,5.76-2-2.65-4-6.29-7.36-5.86,1.57,2.07,3.9,2.8,4.9,5.41s-.3,5.29-.3,7.53a23.09,23.09,0,0,0,4.48,13.1c1.49,1.81,3.81,1.89,5.17,4.23,1.11,1.85,2.06,4.21,3.09,6.12.35.61-.42.92.37,2.2.48.77,1.81,1.46,2.46,2.2.45.49,2.61,3.29,2.78,4.35,2-2.28-5.9-10.25-6.13-13.53,2.22-.3,4.76,5.27,6.38,7.21,2.09,2.46,4,5.79,6.12,8.48-3.1,2.32,9.23,7.36,11.25,7.69.61.1,1.29-.73,2.42-.37,1.29.41,1.87,1.92,2.9,2.59a11.65,11.65,0,0,0,4.53,1.16c1.8,1.38,2.7,4.08,3.65,5.08,1.36,1.39,4.47,2.44,6.41,3.38-.53-3.66,3.11-.33,3.26-1.55.29-2.4-4.57-.89-5.92-1.87-3.25-2.4.22-5.08-1.44-7.75-1.43-2.26-5-.47-6.81-1.32,1.56-1.87,3.87-7.81.52-7.59-3,.22-1.55,2.54-3.42,4.17s-4.49.53-5.84-.75c-3-2.87-2.85-10.77-1.08-13.65,2.44-3.95,6.33-.13,9-1.06-.65-2.48,1.9-2.12,3.49-2-.15,0,3.63.78,3.15.41,1.18.92,3.1,7.73,4.34,7.61,1.5-.14-1.15-9.2.87-11.74,1.29-1.65,4-2,4.79-4,.67-1.66-.3-2.48-.72-4.55,1.11.32.53-.68,1.7.65.42-1,1.35-3.73,2-4.44.83-.81,3-1,4.36-1.4-2-4.19,5.64-7.2,8.49-6.47-.39-.08-2.76.93-3.09,1.67-1,2.23,1.77.32,1.87.3a7.46,7.46,0,0,0,5.75-4.62c-1.89,1-2.43,2.65-4.74,1.31-3.07-1.84-.11-3.46-.81-4.68-1.94-3.3-6.82,2.68-8.86,4.11a9.4,9.4,0,0,1,2.11-2.85c-.5-.12-1-.29-1.52-.43,2.57.63,4.05-2.91,6.25-3.6,1.46-.47,3.5.12,5,0,2.31-.24,2.07-.53,4-1.47,1.79-.81,4.64-1.11,3.79-3.64s-3.92-.75-5.75-.55c.87-1.62,2.64-1.28,4-2.52a7.71,7.71,0,0,1-5.71-3.62c1.42-1-2.63-5.76-3.35-7.53-1.16,1.43-1.16,3.73-3,4.19s-1.57-1.64-3.61-1.05c1.28-4.85-2.27-6.51-5.69-7.47-3.88-1.12-6.47,1.06-3.72,5.49h-.92c-.3.75-.09,1.22-.52,2,3.64,1.66,2.81,7.75-1.39,7.59,1.21,1.42,2.28,6.73-.39,7s-3.19-5.33-3-7.42a20.66,20.66,0,0,1-7.4-2.5c-1.15-.64-2.5-1.1-3.51-1.55s-1.13.49-1.91,0c-.59-.39-.68-1.83-1.07-2.36-1.33-1.81-2-.77-1.76-3.72a8.79,8.79,0,0,1,2-4.05c.85-.94,2.85-1.2,2.64-2.57-.14-.89-3.4-1.4-4-1.66,1.71.18,4.87,1.93,5.33-.43,2,1.32,2.94-.18,3.48-2-1.82.14-3.18-.84-4.74-1.65,1.19,0,8,1.87,5.2-1.39,3-.25,1,5.08-.39,5.65,1.11,1.3,1.53,1.63,3.22,1.6a10.73,10.73,0,0,1,2-1c.59-.1,1.24.67,1.72.59,3.77-.71-3.64-3.58-4.27-5.08,1.7-.07.67,0,1.37-1,2.59-.22,3.77-2.63,2-5,3.53-.66-.83-3.19-2.09-3.83,2.17-.37,4.48.76,6.77-.16q-.52-.52-1.05-1.08c2.4.77,4.06,2.38,6.17,4.11.89.73,2.54,1.84,2.59,3.3.08,2-3.31,1.89-1.79,4.39-1.26.31-5.73-.78-5.53,1.66s3.48-.22,4.31-.12c2.64.37,2.84,2.38,4.53,3.91s4.31,1.26,6.28,2.44c.08-1.83-2.47-2.75-3.42-4.36,1.74.94,3.48,1.9,5.13,3a23.19,23.19,0,0,0,.72-2.47,42.58,42.58,0,0,1-5.05-5.49c1.2-1.93,1.66-.59,3.07.22,2.25,1.32,1.27,2.06,3.07,1.52-.13,0,2.22-2,2.2-2,.76-1.56.89-.4-.13-1.81s-11.06-4.5-6.05-5.65l-1.51-.44a2.74,2.74,0,0,1,.92-.65c-.78-.34-1.07-1-2-1.22.14-.27.29-.53.46-.8-1.85-.43-2.72-.89-4.4-1.38.29-.21.61-.43.9-.65-3.32-.09-3.53-2.16-5.84-3-1.77-.61-5.2,1.58-5.95,1.13-1.17-.67.29-1.36-.47-2.56-1.29-2.07-1.11-1.8-3.21-1.38-3.18.66-3,3.46-1.41,5.78-3.33.48-2.86-5-.48-6.28-2.53-.12-4.9.19-5.92,3.16-1.36,4.06,1.37,2.22,2.7,4.36-1-.26-1.53.18-2.42.14.81,1.28,4.48,1.7,6.05,2.23-1,.43-1.46,7.54-4,6.09-1.14-.65,0-2.64,0-2.68-1-1.25-1.94-.76-2.29-1s-2.36-1-3.12-2.2c-1.06-1.71-1.33-6.43-4.55-4-3,2.32,3.25,6.5-.3,5.69.54,1.62,1.65,1.54,2.91.29,0,2.48-3,1.64-2.11,4.49-1.48-1.11-1.13-.65-1.06-2.32-1.38-.42-.26-.07-1-1.23h.85a2.66,2.66,0,0,0-2.36-2.89c-.37.41-1.24,1.44-1.57,1.87.68.3,1.22,1.08,1.9,1.38-1.57,3.13-4.62,1.71-7.23,1.05-1.7-.43-1.9-1.16-3.55-.41-2.42,1.13-1.29,1.31-1.65,4-1.07-4.21-6.14-2.8-9.2-3.11.25-.16.55-.89,1.44-1.22-1.52-1.35-6.62-3-8.42-3.34-2.23-.47-4.42,2.07-5.25-.92-.64,2.41-1.11.88-2.14.82-.34,0-.71-1.64-1.48-1.74-1-.13-.39.72-1,.85a33.11,33.11,0,0,0-5.68,3c1.2-1.74,3.16-1.5,4.33-3-2.22,0-4.85,1.34-7.07,1.85-3.73.85-5.23-.85-9-1.32-2.87-.34-5.49-1-8.47-1.26-3.14-.28-4.77-1.51-8-1.09l.33-.79c-2-.41-4.7,1-6.47,1.59-2.44.8-2.61,2.43-4.31,3.58-2.42,1.62-4.14-.1-2.2,2.71,1.22,1.78,3.86,2,4.75,4.34-1.39.51-2.88.43-3-1.29-1.57,1.23-3.34.79-4.66,2.52,1.7.76,1.69,2.3,3.15,2.7,1.68.47,3.9-.79,5.47-.95.22,5.29-5.36,1.54-6.18,6.22-.2,1.27,2.44,6.55,4.15,3.46a3.3,3.3,0,0,1,.77,3.46c1.67-.37,3.53.27,4.35-.85.52,0,1.2.16,1.9.14-1.24,6.06-7.51,5.06-10.45,8.77,4.26,1.14,11.32-6,15-8.26-.33-.53-.64-1.06-1-1.59,2.24-.81,3.07-4.9,5.66-3.05-1.83.24-2.85,1.42-2.31,3.34a9.55,9.55,0,0,1,4.4-1.75C43,129.47,42.91,129.15,42.78,128.84Zm-5.38,5.92v-1.3c-1.33,1.06-3.27,1.34-2.18,3.25A4.93,4.93,0,0,0,37.4,134.76Z" style="opacity:0.7"></path>
        </g>
    </g>
    <g id="freepik--Plant--inject-53">
        <line x1="49.53" y1="407.67" x2="49.56" y2="358.91"
              style="fill:none;stroke:#263238;stroke-linecap:round;stroke-linejoin:round"></line>
        <polyline points="27.64 370.5 49.12 387.42 64.16 368.32"
                  style="fill:none;stroke:#263238;stroke-linecap:round;stroke-linejoin:round"></polyline>
        <path d="M49.21,366.38A25.46,25.46,0,0,1,42.12,355c-2-7.07,7.58-19.91,7.58-19.91s6.27,13,6.94,19.19S49.21,366.38,49.21,366.38Z"
              style="fill:#F8A335;stroke:#263238;stroke-linecap:round;stroke-miterlimit:10"></path>
        <path d="M58.73,375a83.24,83.24,0,0,1,.78-11c.72-3.93,6.28-6.42,10.32-7.4s11.79.17,11.79.17a20.82,20.82,0,0,1-7.23,12.76C68,374.66,58.73,375,58.73,375Z"
              style="fill:#F8A335;stroke:#263238;stroke-linecap:round;stroke-miterlimit:10"></path>
        <path d="M38.25,378s2.14-3.72-5.87-11.83-21.26-1.44-21.26-1.44,6.39,9.31,10.41,12.36S38.25,378,38.25,378Z"
              style="fill:#F8A335;stroke:#263238;stroke-linecap:round;stroke-miterlimit:10"></path>
        <path d="M48.92,397.32a22.22,22.22,0,0,0-12.35-8c-7.95-1.77-12.9-.49-12.9-.49s5.08,10.42,10.92,11.86S48.92,397.32,48.92,397.32Z"
              style="fill:#F8A335;stroke:#263238;stroke-linecap:round;stroke-miterlimit:10"></path>
        <path d="M48.92,397.32a10.59,10.59,0,0,1,4.26-4.4c3.34-2.1,12.21-2.65,12.21-2.65s-.23,4.43-5.48,6.82S48.92,397.32,48.92,397.32Z"
              style="fill:#F8A335;stroke:#263238;stroke-linecap:round;stroke-miterlimit:10"></path>
        <line x1="38.25" y1="378.01" x2="18.36" y2="365.84"
              style="fill:none;stroke:#263238;stroke-linecap:round;stroke-miterlimit:10"></line>
        <line x1="49.21" y1="366.38" x2="49.21" y2="345.7"
              style="fill:none;stroke:#263238;stroke-linecap:round;stroke-miterlimit:10"></line>
        <line x1="58.73" y1="375.01" x2="69.55" y2="362.96"
              style="fill:none;stroke:#263238;stroke-linecap:round;stroke-miterlimit:10"></line>
        <polyline points="36.86 395.24 48.92 397.32 56.19 395.03"
                  style="fill:none;stroke:#263238;stroke-linecap:round;stroke-miterlimit:10"></polyline>
        <polygon points="62.83 402.79 32.8 402.79 35.3 426.17 60.33 426.17 62.83 402.79"
                 style="fill:#263238;stroke:#263238;stroke-linecap:round;stroke-miterlimit:10"></polygon>
    </g>
    <g id="freepik--Character--inject-53">
        <path d="M258.84,276.06l2.63,13.11s-17.7,5.25-29.83,8.2-18.86,5-17.88,11.27,0,20,0,20L200.5,387.18l-1,4.26L227.05,396,232,379.64s2.95,5.24,2.95,8.85-3.28,37.8-3.28,37.8H333.91l11.47-71.56s8.19-37.37,8.85-42.94,3.6-11.8-1.31-16.06-49.83-6.88-50.81-7.21-3.6-1.31-3.6-1.31l-1-9.51a39.68,39.68,0,0,1-16.39,3.93c-8.85,0-22-8.85-22-8.85Z"
              style="fill:#F8A335;stroke:#263238;stroke-miterlimit:10"></path>
        <path d="M263,379.89s18.45,7.76,31.06,9.38" style="fill:none;stroke:#263238;stroke-miterlimit:10"></path>
        <path d="M231.64,336.05s-5.9,24.58-4.92,32.12A19.88,19.88,0,0,0,232,379.64"
              style="fill:none;stroke:#263238;stroke-miterlimit:10"></path>
        <path d="M227.32,403.93s3-4.15-1.16-9.46-15-7.61-20.06-6.92-8.54,4.16-12.92,8.31-8.77,7.61-8.77,7.61-6.92-6-9.69-6.92-12.45,8.3-15,10.84-5.07,3,.69,6.69,7.38,3.23,12.92,3.46,20.53-1.15,23.07-2.54,10.61-.92,16.61-3C222.88,408.59,222.93,408.31,227.32,403.93Z"
              style="fill:#fff;stroke:#263238;stroke-miterlimit:10"></path>
        <path d="M152,404.45s-6.38,1.06-8.24,2.39-5.58,4.79-4,6.65,6.11-2.4,6.91-2.4S156,413,156,413,155.2,405.78,152,404.45Z"
              style="fill:#fff;stroke:#263238;stroke-miterlimit:10"></path>
        <path d="M159.18,397s-8.24,1.59-9,4,.26,14.62,1.06,16.22,3.19,1.59,4.25-.27,1.06-9.57,1.86-11.43S159.18,397,159.18,397Z"
              style="fill:#fff;stroke:#263238;stroke-miterlimit:10"></path>
        <path d="M169,395.94s-6.38-2.39-9.31-1.32-4.78,19.4-3.19,20.46a3.5,3.5,0,0,0,5-2.13c.8-2.39,2.4-8.23,2.4-8.23l4-3.19"
              style="fill:#fff;stroke:#263238;stroke-miterlimit:10"></path>
        <path d="M176.6,393.65s8.43,8.47,10.8,9.83a14.69,14.69,0,0,0,7.54,1.93c3.13-.11,5.82-2.7,8.95-1.06a3,3,0,0,1,1.7,2c.22,1.3-.79,2.46-1.82,3.28a17,17,0,0,1-15.19,2.95,2.38,2.38,0,0,0-1-.16,2.2,2.2,0,0,0-.91.47,19.72,19.72,0,0,1-5.26,3.23c-3.74,1.28-8.51.16-8.51.16"
              style="fill:#fff;stroke:#263238;stroke-miterlimit:10"></path>
        <path d="M172.88,404.26s2.29,2.29,5.35-1" style="fill:none;stroke:#263238;stroke-miterlimit:10"></path>
        <path d="M173.8,399.13s-2.39,10.37-3.45,12.23-3.73,2.66-5.32.8,2.13-16,2.39-18.08a2.41,2.41,0,0,1,2.39-2.12s4-.53,5.59.26,4.25,6.12,4.25,6.12"
              style="fill:#fff;stroke:#263238;stroke-miterlimit:10"></path>
        <path d="M302.11,288.52c-1-.33-3.6-1.31-3.6-1.31l-1-9.51a39.68,39.68,0,0,1-16.39,3.93c-8.85,0-22-8.85-22-8.85l-.33,3.28,2.63,13.11s-7.14,2.12-15.45,4.42c3.88,8.62,14.46,29.47,27.9,33.61,13.21,4.06,32.51-24.54,40.54-37.63C307.56,289,302.44,288.63,302.11,288.52Z"
              style="fill:#fff;stroke:#263238;stroke-miterlimit:10"></path>
        <polygon points="263.48 298.91 252.92 291.54 261.47 289.17 263.48 298.91"
                 style="fill:#263238;stroke:#263238;stroke-miterlimit:10"></polygon>
        <polygon points="261.47 289.17 263.48 298.91 279.94 288.66 258.85 276.06 261.47 289.17"
                 style="fill:#263238;stroke:#263238;stroke-miterlimit:10"></polygon>
        <line x1="298.51" y1="287.21" x2="299.63" y2="295.13"
              style="fill:none;stroke:#263238;stroke-miterlimit:10"></line>
        <path d="M302.6,303s-15.92,4.32-18.62,5.13-5.12,1.89-5.66,3.24"
              style="fill:none;stroke:#263238;stroke-miterlimit:10"></path>
        <line x1="257.27" y1="305.65" x2="269.89" y2="311.34"
              style="fill:none;stroke:#263238;stroke-miterlimit:10"></line>
        <path d="M306,241.12s1.91-4.37,3.82-.82,3.28,7.92.82,12a21.24,21.24,0,0,1-4.64,5.73L303.8,240.3Z"
              style="fill:#fff;stroke:#263238;stroke-miterlimit:10"></path>
        <path d="M242.64,251.22a16.4,16.4,0,0,0,.27,11.47c2.46,6.28,9.56,5.74,9.56,5.74s6.55,10.37,11.47,15,19.11,12.29,24.85,10.38,13.92-13.65,16.38-23.76.27-24.84.27-24.84,1.09-9-1.91-16.38-6.83-10.38-13.65-9.56-24.3,3.28-33.86,9.83-11.74,11.47-11.74,14.47S242.64,251.22,242.64,251.22Z"
              style="fill:#fff;stroke:#263238;stroke-miterlimit:10"></path>
        <path d="M295.89,227.74s2.73,6,5.18,7.65l2.46,1.64s1.37,6,1.91,8.19,2.46,1.36,2.73-1.37.27-6.28.27-6.28a18,18,0,0,0,5.74-8.19c1.91-5.46,3.82-13.11-2.19-19.39s-12.56-7.64-15.56-6.82S293.43,219.82,295.89,227.74Z"
              style="fill:#263238;stroke:#263238;stroke-miterlimit:10"></path>
        <path d="M242.64,251.22a3,3,0,0,1,4.1.55c1.91,2.18,1.09,5.19,2.18,6.28s3.55,1.91,3.82-1.36-1.91-8.47-.82-10.93,4.65-5.18,7.92-3.27,9,6.28,13.11,1.09,3.82-13.38,6.83-13.65,2.45,2.73,9.55,1.91,10.1-2.46,10.65-17.48-7.1-27.85-17.2-31.12S245.1,185.42,235,199.62s-9.56,28.67-5.46,34.4S243.46,249.86,242.64,251.22Z"
              style="fill:#263238;stroke:#263238;stroke-miterlimit:10"></path>
        <path d="M289.12,205.34s-10.66-3.1-15.13,2.06-4.81,16.5-10,18.21-8.94-3.43-12.72,0-1,9.28-6.19,11.35-11.68-3.1-11.68-3.1"
              style="fill:none;stroke:#737373;stroke-miterlimit:10"></path>
        <path d="M257.84,215a12,12,0,0,0-10,2.41c-4.46,3.78-.34,9.28-6.53,10.31s-10.65-3.44-10.65-3.44"
              style="fill:none;stroke:#737373;stroke-miterlimit:10"></path>
        <path d="M286.6,257.78l.82,6.82s5.19,6.28-.55,7.65-5.46-2.19-5.46-2.19"
              style="fill:none;stroke:#263238;stroke-miterlimit:10"></path>
        <path d="M276,276.07s6.56,3.82,11.47,3,7.92-6.55,7.92-6.55"
              style="fill:none;stroke:#263238;stroke-miterlimit:10"></path>
        <path d="M273.5,259.28c0,1.88-1,3.41-2.19,3.41s-2.18-1.53-2.18-3.41,1-3.41,2.18-3.41S273.5,257.39,273.5,259.28Z"
              style="fill:#263238"></path>
        <path d="M295.61,255.18c0,1.89-1,3.42-2.18,3.42s-2.19-1.53-2.19-3.42,1-3.41,2.19-3.41S295.61,253.3,295.61,255.18Z"
              style="fill:#263238"></path>
        <path d="M261.75,252.59s6-4.64,13.38-3.28" style="fill:none;stroke:#263238;stroke-miterlimit:10"></path>
        <path d="M288.51,246.86a9.73,9.73,0,0,1,9.83-2.19" style="fill:none;stroke:#263238;stroke-miterlimit:10"></path>
        <path d="M277.52,252.56,262,255.47a2.58,2.58,0,0,0-2.05,3l1.1,5.41a2.84,2.84,0,0,0,3.38,2.22l14.4-3.09a2.85,2.85,0,0,0,2.24-3.07l-.54-5.16A2.59,2.59,0,0,0,277.52,252.56Z"
              style="fill:none;stroke:#263238;stroke-miterlimit:10"></path>
        <path d="M289.26,250.13l15.92-2.71a2.17,2.17,0,0,1,2.67,2.13l.06,5.46a3.42,3.42,0,0,1-2.88,3.26l-14.9,2.17a2.39,2.39,0,0,1-2.85-2.1l-.55-5A3,3,0,0,1,289.26,250.13Z"
              style="fill:none;stroke:#263238;stroke-miterlimit:10"></path>
        <path d="M281.21,256a5,5,0,0,1,5.64-.94" style="fill:none;stroke:#263238;stroke-miterlimit:10"></path>
        <line x1="260.41" y1="260.65" x2="247.74" y2="254.24"
              style="fill:none;stroke:#263238;stroke-miterlimit:10"></line>
        <path d="M325.06,329.82l-2.85,53.52s2,1,11.14,6.88,23.27,6.56,25.24,4.26-6.33-85.31-6.33-85.31"
              style="fill:#F8A335;stroke:#263238;stroke-miterlimit:10"></path>
        <path d="M200.1,405.55s-.92.92-4.38,1.38-8.08-1.15-9.23,2.31,4.15,5.53,7.15,5.07a59.59,59.59,0,0,0,8.53-2.54s6.46.23,9.46,1.39,5.31,3,9.92,1.84,8.64-.36,10.09-2.26,5.37-4-6.17-7a45,45,0,0,0-20.53-.7Z"
              style="fill:#fff;stroke:#263238;stroke-miterlimit:10"></path>
        <path d="M209.56,396.55s-4.16-1.38-6.46.23-5.54,13.61-6.46,17.07-.92,7.15.69,7.84,3.46-.69,4.61-3.69,7.62-16.15,8.31-17.76S212.32,396.09,209.56,396.55Z"
              style="fill:#fff;stroke:#263238;stroke-miterlimit:10"></path>
        <path d="M219.84,397.34s-8.21-1.48-10.28-.79-7.15,12.92-7.39,15.22-2.76,9.92.24,10.61,4.84-2.07,6.22-4.84,4.16-11.53,5.77-13.61a14.6,14.6,0,0,1,4.38-3.46S222.28,398.82,219.84,397.34Z"
              style="fill:#fff;stroke:#263238;stroke-miterlimit:10"></path>
        <path d="M357.09,397s8.06-2.51-4.4-9.72-25.24-8.19-29.5-6.56-67.95,22.2-67.95,22.2-30.81-4.91-35.4-5.57S213,401.6,211,405.53s-4.59,14.75-3.93,16.06,3.93.33,4.59-1.31,2.62-7.21,3.27-8.19,5.58-3.93,5.58-3.93l7.86,1.31s-5.19,6.92-9.35,9.45-2.53,5.31-.46,5.31,8.31-3.69,10.61-5.54,6.46-4.38,6.46-4.38a15.47,15.47,0,0,0,6.23,1.38,79.76,79.76,0,0,0,13.84-2.07c2.54-.69,58.57-3.7,65.95-5.32S347.64,403.93,357.09,397Z"
              style="fill:#fff;stroke:#263238;stroke-miterlimit:10"></path>
    </g>
    <g id="freepik--Device--inject-53">
        <rect x="78.74" y="422.36" width="186.32" height="3.41"
              style="fill:#9c9c9c;stroke:#263238;stroke-miterlimit:10"></rect>
        <rect x="198.79" y="422.36" width="66.28" height="3.41"
              style="fill:#263238;stroke:#263238;stroke-miterlimit:10"></rect>
        <path d="M201.24,422.36H80.88L66,338.72a3.88,3.88,0,0,1,3.82-4.56H182.31a3.88,3.88,0,0,1,3.82,3.2Z"
              style="fill:#263238;stroke:#263238;stroke-miterlimit:10"></path>
        <path d="M199.1,422.36H78.74L63.88,338.72a3.87,3.87,0,0,1,3.82-4.56H180.17a3.87,3.87,0,0,1,3.82,3.2Z"
              style="fill:#9c9c9c;stroke:#263238;stroke-miterlimit:10"></path>
    </g>
    <g id="freepik--Books--inject-53">
        <path d="M458.6,409.61H378.12a8.15,8.15,0,0,0-8.14,8.15h0a8.15,8.15,0,0,0,8.14,8.14H458.6Z"
              style="fill:#fff;stroke:#263238;stroke-miterlimit:10"></path>
        <path d="M377.19,417.76a8.14,8.14,0,0,1,8.14-8.15h-2.46a8.15,8.15,0,0,0,0,16.29h2.46A8.14,8.14,0,0,1,377.19,417.76Z"
              style="fill:#fff;stroke:#263238;stroke-miterlimit:10"></path>
        <path d="M401.17,417.76a8.14,8.14,0,0,1,8.14-8.15h-2.46a8.15,8.15,0,0,0,0,16.29h2.46A8.14,8.14,0,0,1,401.17,417.76Z"
              style="fill:#fff;stroke:#263238;stroke-miterlimit:10"></path>
        <polygon
                points="416.85 409.61 409.73 413.05 408.3 418.28 410.2 422.55 414.92 425.9 458.6 425.9 458.6 409.61 416.85 409.61"
                style="fill:#fff;stroke:#263238;stroke-miterlimit:10"></polygon>
        <path d="M415.45,423.44a5.68,5.68,0,0,1,0-11.36h46v-2.47H414.92a8.15,8.15,0,0,0,0,16.29h46.56v-2.46Z"
              style="fill:#fff;stroke:#263238;stroke-miterlimit:10"></path>
        <line x1="412.1" y1="416.38" x2="424.21" y2="416.38"
              style="fill:none;stroke:#263238;stroke-miterlimit:10"></line>
        <line x1="420.41" y1="419.23" x2="429.19" y2="419.23"
              style="fill:none;stroke:#263238;stroke-miterlimit:10"></line>
        <line x1="457.92" y1="416.14" x2="445.1" y2="416.14"
              style="fill:none;stroke:#263238;stroke-miterlimit:10"></line>
        <line x1="450.08" y1="419.94" x2="437.5" y2="419.94"
              style="fill:none;stroke:#263238;stroke-miterlimit:10"></line>
        <line x1="443.44" y1="416.38" x2="440.35" y2="416.38"
              style="fill:none;stroke:#263238;stroke-miterlimit:10"></line>
        <path d="M458.6,392.93H378.12a8.15,8.15,0,0,0-8.14,8.15h0a8.15,8.15,0,0,0,8.14,8.14H458.6Z"
              style="fill:#9c9c9c;stroke:#263238;stroke-miterlimit:10"></path>
        <path d="M377.19,401.08a8.14,8.14,0,0,1,8.14-8.15h-2.46a8.15,8.15,0,0,0,0,16.29h2.46A8.14,8.14,0,0,1,377.19,401.08Z"
              style="fill:#fff;stroke:#263238;stroke-miterlimit:10"></path>
        <path d="M401.17,401.08a8.14,8.14,0,0,1,8.14-8.15h-2.46a8.15,8.15,0,0,0,0,16.29h2.46A8.14,8.14,0,0,1,401.17,401.08Z"
              style="fill:#fff;stroke:#263238;stroke-miterlimit:10"></path>
        <polygon
                points="416.85 392.93 409.73 396.37 408.3 401.6 410.2 405.87 414.92 409.22 458.6 409.22 458.6 392.93 416.85 392.93"
                style="fill:#fff;stroke:#263238;stroke-miterlimit:10"></polygon>
        <path d="M415.45,406.76a5.69,5.69,0,0,1,0-11.37h46v-2.46H414.92a8.15,8.15,0,0,0,0,16.29h46.56v-2.46Z"
              style="fill:#263238;stroke:#263238;stroke-linecap:round;stroke-miterlimit:10"></path>
        <line x1="412.1" y1="399.7" x2="424.21" y2="399.7" style="fill:none;stroke:#263238;stroke-miterlimit:10"></line>
        <line x1="420.41" y1="402.55" x2="429.19" y2="402.55"
              style="fill:none;stroke:#263238;stroke-miterlimit:10"></line>
        <line x1="457.92" y1="399.46" x2="445.1" y2="399.46"
              style="fill:none;stroke:#263238;stroke-miterlimit:10"></line>
        <line x1="450.08" y1="403.26" x2="437.5" y2="403.26"
              style="fill:none;stroke:#263238;stroke-miterlimit:10"></line>
        <line x1="443.44" y1="399.7" x2="440.35" y2="399.7"
              style="fill:none;stroke:#263238;stroke-miterlimit:10"></line>
        <polygon
                points="416.9 422.65 277.77 422.65 277.77 426.52 310.62 426.52 363.02 424.14 411.01 426.52 416.9 426.52 416.9 422.65"
                style="fill:#bababa;stroke:#263238;stroke-miterlimit:10"></polygon>
        <polygon
                points="310.41 422.65 310.41 426.52 357.88 425.9 358.62 426.52 367.42 426.52 368.45 425.75 416.9 426.52 416.9 422.65 310.41 422.65"
                style="fill:#263238;stroke:#263238;stroke-miterlimit:10"></polygon>
        <path d="M277.67,414.07s26.88-1.27,36.77-3.75,21.68-3,26.35-2.47a95.41,95.41,0,0,1,10.15,1.93s19.22-1.93,32.39-.83,14.55,13.45,14.55,13.45H280.67Z"
              style="fill:#fff;stroke:#263238;stroke-miterlimit:10"></path>
        <path d="M362.37,422.65V414.5s-14.18-7.73-27.49-4.73-24.9,4.3-24.9,4.3v8.58Z"
              style="fill:#fff;stroke:#263238;stroke-miterlimit:10"></path>
        <path d="M362.37,422.65V414.5s14.17-7.73,27.48-4.73,24.91,4.3,24.91,4.3v8.58Z"
              style="fill:#fff;stroke:#263238;stroke-miterlimit:10"></path>
        <rect x="277.67" y="414.07" width="32.3" height="8.59"
              style="fill:#fff;stroke:#263238;stroke-miterlimit:10"></rect>
        <path d="M332.11,416.2c4.66-.49,9.51-1,12.73-1.25,6.61-.57,15.52,3.16,15.52,3.16"
              style="fill:none;stroke:#263238;stroke-miterlimit:10"></path>
        <path d="M320.11,417.54c1.66-.21,4.47-.53,7.7-.88" style="fill:none;stroke:#263238;stroke-miterlimit:10"></path>
        <path d="M358.93,420.41s-6.9-2-12.65-1.15" style="fill:none;stroke:#263238;stroke-miterlimit:10"></path>
        <path d="M348.58,412.65a53.93,53.93,0,0,0-11.79.86"
              style="fill:none;stroke:#263238;stroke-miterlimit:10"></path>
        <path d="M392.27,417.3c-4.85-.45-10.78-.91-14.37-.91a53.82,53.82,0,0,0-12.36,1.44"
              style="fill:none;stroke:#263238;stroke-miterlimit:10"></path>
        <path d="M400.33,418.11l-3.5-.37" style="fill:none;stroke:#263238;stroke-miterlimit:10"></path>
        <path d="M369.85,415a25.49,25.49,0,0,1,14.09-.29" style="fill:none;stroke:#263238;stroke-miterlimit:10"></path>
        <path d="M370.14,420.7a53.05,53.05,0,0,1,11.79-1.15c5.17.29,18.4,1.44,18.4,1.44"
              style="fill:none;stroke:#263238;stroke-miterlimit:10"></path>
    </g>
    <g id="freepik--Table--inject-53">
        <line x1="16.7" y1="426.29" x2="485.86" y2="426.29"
              style="fill:none;stroke:#263238;stroke-miterlimit:10"></line>
    </g>
</svg>
